Russolo-72ptExtraLight.ufo
<glyph name="quotedbl" format="2">
  <advance width="447"/>
  <unicode hex="0022"/>
  <note>
quotedbl
</note>
  <outline>
    <contour>
      <point x="274" y="854" type="line"/>
      <point x="292" y="854" type="line"/>
      <point x="310" y="1354" type="line"/>
      <point x="258" y="1354" type="line"/>
    </contour>
    <contour>
      <point x="154" y="854" type="line"/>
      <point x="172" y="854" type="line"/>
      <point x="190" y="1354" type="line"/>
      <point x="138" y="1354" type="line"/>
    </contour>
  </outline>
</glyph>
<glyph name="percent" format="2">
  <advance width="1689"/>
  <unicode hex="0025"/>
  <note>
percent
</note>
  <outline>
    <contour>
      <point x="322" y="-41" type="line"/>
      <point x="370" y="-41" type="line"/>
      <point x="1292" y="1451" type="line"/>
      <point x="1244" y="1451" type="line"/>
    </contour>
    <contour>
      <point x="1269" y="-19" type="curve" smooth="yes"/>
      <point x="1470" y="-19"/>
      <point x="1592" y="143"/>
      <point x="1592" y="353" type="curve" smooth="yes"/>
      <point x="1592" y="565"/>
      <point x="1466" y="725"/>
      <point x="1269" y="725" type="curve" smooth="yes"/>
      <point x="1071" y="725"/>
      <point x="947" y="565"/>
      <point x="947" y="353" type="curve" smooth="yes"/>
      <point x="947" y="145"/>
      <point x="1067" y="-19"/>
    </contour>
    <contour>
      <point x="1269" y="-4" type="curve" smooth="yes"/>
      <point x="1111" y="-4"/>
      <point x="1021" y="137"/>
      <point x="1021" y="353" type="curve" smooth="yes"/>
      <point x="1021" y="569"/>
      <point x="1111" y="712"/>
      <point x="1269" y="712" type="curve" smooth="yes"/>
      <point x="1426" y="712"/>
      <point x="1517" y="570"/>
      <point x="1517" y="353" type="curve" smooth="yes"/>
      <point x="1517" y="137"/>
      <point x="1427" y="-4"/>
    </contour>
    <contour>
      <point x="419" y="727" type="curve" smooth="yes"/>
      <point x="620" y="727"/>
      <point x="742" y="890"/>
      <point x="742" y="1099" type="curve" smooth="yes"/>
      <point x="742" y="1312"/>
      <point x="616" y="1471"/>
      <point x="419" y="1471" type="curve" smooth="yes"/>
      <point x="221" y="1471"/>
      <point x="97" y="1312"/>
      <point x="97" y="1099" type="curve" smooth="yes"/>
      <point x="97" y="891"/>
      <point x="217" y="727"/>
    </contour>
    <contour>
      <point x="419" y="741" type="curve" smooth="yes"/>
      <point x="261" y="741"/>
      <point x="171" y="884"/>
      <point x="171" y="1099" type="curve" smooth="yes"/>
      <point x="171" y="1315"/>
      <point x="261" y="1457"/>
      <point x="419" y="1457" type="curve" smooth="yes"/>
      <point x="576" y="1457"/>
      <point x="668" y="1316"/>
      <point x="668" y="1099" type="curve" smooth="yes"/>
      <point x="668" y="884"/>
      <point x="577" y="741"/>
    </contour>
  </outline>
</glyph>
<glyph name="quotesingle" format="2">
  <advance width="327"/>
  <unicode hex="0027"/>
  <note>
quotesingle
</note>
  <outline>
    <contour>
      <point x="154" y="854" type="line"/>
      <point x="172" y="854" type="line"/>
      <point x="190" y="1354" type="line"/>
      <point x="138" y="1354" type="line"/>
    </contour>
  </outline>
</glyph>
<glyph name="parenleft" format="2">
  <advance width="471"/>
  <unicode hex="0028"/>
  <note>
parenleft
</note>
  <outline>
    <contour>
      <point x="405" y="-395" type="curve"/>
      <point x="422" y="-370" type="line"/>
      <point x="291" y="-171"/>
      <point x="147" y="203"/>
      <point x="147" y="550" type="curve" smooth="yes"/>
      <point x="147" y="901"/>
      <point x="295" y="1298"/>
      <point x="426" y="1483" type="curve"/>
      <point x="403" y="1503" type="line"/>
      <point x="171" y="1143"/>
      <point x="81" y="887"/>
      <point x="81" y="550" type="curve" smooth="yes"/>
      <point x="81" y="207"/>
      <point x="174" y="-65"/>
    </contour>
  </outline>
</glyph>
<glyph name="asterisk" format="2">
  <advance width="697"/>
  <unicode hex="002A"/>
  <note>
asterisk
</note>
  <outline>
    <contour>
      <point x="350" y="1139" type="line"/>
      <point x="442" y="1192"/>
      <point x="545" y="1218"/>
      <point x="547" y="1219" type="curve" smooth="yes"/>
      <point x="568" y="1232"/>
      <point x="540" y="1245"/>
      <point x="589" y="1274" type="curve"/>
      <point x="584" y="1283" type="line"/>
      <point x="535" y="1255"/>
      <point x="537" y="1286"/>
      <point x="515" y="1274" type="curve" smooth="yes"/>
      <point x="513" y="1273"/>
      <point x="440" y="1197"/>
      <point x="347" y="1143" type="curve"/>
    </contour>
    <contour>
      <point x="113" y="999" type="line"/>
      <point x="162" y="1027"/>
      <point x="160" y="996"/>
      <point x="182" y="1008" type="curve" smooth="yes"/>
      <point x="184" y="1009"/>
      <point x="257" y="1085"/>
      <point x="350" y="1139" type="curve"/>
      <point x="347" y="1143" type="line"/>
      <point x="255" y="1090"/>
      <point x="152" y="1064"/>
      <point x="150" y="1063" type="curve" smooth="yes"/>
      <point x="129" y="1050"/>
      <point x="157" y="1037"/>
      <point x="108" y="1008" type="curve"/>
    </contour>
    <contour>
      <point x="343" y="866" type="curve"/>
      <point x="354" y="866" type="line"/>
      <point x="354" y="923"/>
      <point x="380" y="917"/>
      <point x="380" y="930" type="curve" smooth="yes"/>
      <point x="380" y="944"/>
      <point x="351" y="1034"/>
      <point x="351" y="1141" type="curve"/>
      <point x="346" y="1141" type="line"/>
      <point x="346" y="1034"/>
      <point x="317" y="944"/>
      <point x="317" y="930" type="curve" smooth="yes"/>
      <point x="317" y="917"/>
      <point x="343" y="923"/>
    </contour>
    <contour>
      <point x="347" y="1139" type="curve"/>
      <point x="350" y="1143" type="line"/>
      <point x="257" y="1197"/>
      <point x="184" y="1273"/>
      <point x="182" y="1274" type="curve" smooth="yes"/>
      <point x="160" y="1286"/>
      <point x="162" y="1255"/>
      <point x="113" y="1283" type="curve"/>
      <point x="108" y="1274" type="line"/>
      <point x="157" y="1245"/>
      <point x="129" y="1232"/>
      <point x="150" y="1219" type="curve" smooth="yes"/>
      <point x="152" y="1218"/>
      <point x="255" y="1192"/>
    </contour>
    <contour>
      <point x="515" y="1008" type="curve" smooth="yes"/>
      <point x="537" y="996"/>
      <point x="535" y="1027"/>
      <point x="584" y="999" type="curve"/>
      <point x="589" y="1008" type="line"/>
      <point x="540" y="1037"/>
      <point x="568" y="1050"/>
      <point x="547" y="1063" type="curve" smooth="yes"/>
      <point x="545" y="1064"/>
      <point x="442" y="1090"/>
      <point x="350" y="1143" type="curve"/>
      <point x="347" y="1139" type="line"/>
      <point x="440" y="1085"/>
      <point x="513" y="1009"/>
    </contour>
    <contour>
      <point x="346" y="1141" type="curve"/>
      <point x="351" y="1141" type="line"/>
      <point x="351" y="1248"/>
      <point x="380" y="1338"/>
      <point x="380" y="1352" type="curve" smooth="yes"/>
      <point x="380" y="1365"/>
      <point x="354" y="1359"/>
      <point x="354" y="1416" type="curve"/>
      <point x="343" y="1416" type="line"/>
      <point x="343" y="1359"/>
      <point x="317" y="1365"/>
      <point x="317" y="1352" type="curve" smooth="yes"/>
      <point x="317" y="1338"/>
      <point x="346" y="1248"/>
    </contour>
  </outline>
</glyph>
<glyph name="comma" format="2">
  <advance width="381"/>
  <unicode hex="002C"/>
  <note>
comma
</note>
  <outline>
    <contour>
      <point x="142" y="-148" type="curve"/>
      <point x="167" y="-148" type="line"/>
      <point x="202" y="-58"/>
      <point x="235" y="31"/>
      <point x="253" y="131" type="curve"/>
      <point x="192" y="131" type="line"/>
      <point x="163" y="62"/>
      <point x="146" y="-80"/>
    </contour>
  </outline>
</glyph>
<glyph name="slash" format="2">
  <advance width="518"/>
  <unicode hex="002F"/>
  <note>
slash
</note>
  <outline>
    <contour>
      <point x="8" y="-406" type="line"/>
      <point x="39" y="-406" type="line"/>
      <point x="510" y="1498" type="line"/>
      <point x="479" y="1498" type="line"/>
    </contour>
  </outline>
</glyph>
<glyph name="one" format="2">
  <advance width="472"/>
  <unicode hex="0031"/>
  <note>
one
</note>
  <outline>
    <contour>
      <point x="236" y="0" type="line"/>
      <point x="306" y="0" type="line"/>
      <point x="306" y="1460" type="line"/>
      <point x="300" y="1460" type="line"/>
      <point x="25" y="1030" type="line"/>
      <point x="33" y="1025" type="line"/>
      <point x="267" y="1390" type="line"/>
      <point x="236" y="1351" type="line"/>
    </contour>
  </outline>
</glyph>
<glyph name="three" format="2">
  <advance width="982"/>
  <unicode hex="0033"/>
  <note>
three
</note>
  <outline>
    <contour>
      <point x="461" y="-33" type="curve" smooth="yes"/>
      <point x="722" y="-33"/>
      <point x="898" y="155"/>
      <point x="898" y="378" type="curve" smooth="yes"/>
      <point x="898" y="610"/>
      <point x="725" y="741"/>
      <point x="540" y="764" type="curve"/>
      <point x="535" y="758" type="line"/>
      <point x="685" y="769"/>
      <point x="868" y="871"/>
      <point x="868" y="1100" type="curve" smooth="yes"/>
      <point x="868" y="1292"/>
      <point x="726" y="1455"/>
      <point x="495" y="1455" type="curve" smooth="yes"/>
      <point x="286" y="1455"/>
      <point x="100" y="1322"/>
      <point x="86" y="1079" type="curve"/>
      <point x="158" y="1083" type="line"/>
      <point x="158" y="1327"/>
      <point x="306" y="1441"/>
      <point x="491" y="1441" type="curve" smooth="yes"/>
      <point x="713" y="1441"/>
      <point x="788" y="1276"/>
      <point x="788" y="1102" type="curve" smooth="yes"/>
      <point x="788" y="883"/>
      <point x="689" y="767"/>
      <point x="467" y="767" type="curve" smooth="yes"/>
      <point x="304" y="767" type="line"/>
      <point x="304" y="757" type="line"/>
      <point x="471" y="757" type="line" smooth="yes"/>
      <point x="692" y="757"/>
      <point x="806" y="607"/>
      <point x="806" y="374" type="curve" smooth="yes"/>
      <point x="806" y="135"/>
      <point x="664" y="-21"/>
      <point x="467" y="-21" type="curve" smooth="yes"/>
      <point x="266" y="-21"/>
      <point x="138" y="141"/>
      <point x="138" y="346" type="curve" smooth="yes"/>
      <point x="138" y="357" type="line"/>
      <point x="60" y="361" type="line"/>
      <point x="60" y="336" type="line" smooth="yes"/>
      <point x="60" y="103"/>
      <point x="239" y="-33"/>
    </contour>
  </outline>
</glyph>
<glyph name="seven" format="2">
  <advance width="861"/>
  <unicode hex="0037"/>
  <note>
seven
</note>
  <outline>
    <contour>
      <point x="233" y="0" type="curve"/>
      <point x="322" y="0" type="line"/>
      <point x="374" y="543"/>
      <point x="573" y="1046"/>
      <point x="836" y="1416" type="curve"/>
      <point x="30" y="1416" type="line"/>
      <point x="30" y="1320" type="line"/>
      <point x="763" y="1320" type="line"/>
      <point x="789" y="1366" type="line"/>
      <point x="523" y="1010"/>
      <point x="328" y="522"/>
    </contour>
  </outline>
</glyph>
<glyph name="nine" format="2">
  <advance width="999"/>
  <unicode hex="0039"/>
  <note>
nine
</note>
  <outline>
    <contour>
      <point x="263" y="-33" type="line"/>
      <point x="417" y="8"/>
      <point x="545" y="79"/>
      <point x="651" y="189" type="curve" smooth="yes"/>
      <point x="698" y="237"/>
      <point x="742" y="294"/>
      <point x="781" y="359" type="curve" smooth="yes"/>
      <point x="864" y="496"/>
      <point x="922" y="657"/>
      <point x="922" y="878" type="curve" smooth="yes"/>
      <point x="922" y="1228"/>
      <point x="772" y="1430"/>
      <point x="506" y="1434" type="curve" smooth="yes"/>
      <point x="233" y="1439"/>
      <point x="55" y="1233"/>
      <point x="55" y="975" type="curve" smooth="yes"/>
      <point x="55" y="719"/>
      <point x="240" y="524"/>
      <point x="479" y="524" type="curve" smooth="yes"/>
      <point x="698" y="524"/>
      <point x="834" y="688"/>
      <point x="870" y="872" type="curve"/>
      <point x="854" y="937" type="line"/>
      <point x="853" y="735"/>
      <point x="844" y="646"/>
      <point x="802" y="535" type="curve" smooth="yes"/>
      <point x="703" y="270"/>
      <point x="563" y="84"/>
      <point x="263" y="-22" type="curve"/>
    </contour>
    <contour>
      <point x="469" y="538" type="curve" smooth="yes"/>
      <point x="213" y="538"/>
      <point x="131" y="802"/>
      <point x="131" y="975" type="curve" smooth="yes"/>
      <point x="131" y="1168"/>
      <point x="219" y="1425"/>
      <point x="488" y="1420" type="curve" smooth="yes"/>
      <point x="747" y="1416"/>
      <point x="850" y="1174"/>
      <point x="846" y="939" type="curve" smooth="yes"/>
      <point x="843" y="766"/>
      <point x="706" y="538"/>
    </contour>
  </outline>
</glyph>
<glyph name="question" format="2">
  <advance width="849"/>
  <unicode hex="003F"/>
  <note>
question
</note>
  <outline>
    <contour>
      <point x="384" y="306" type="curve"/>
      <point x="427" y="306" type="line"/>
      <point x="402" y="363"/>
      <point x="381" y="493"/>
      <point x="381" y="575" type="curve" smooth="yes"/>
      <point x="381" y="933"/>
      <point x="777" y="878"/>
      <point x="777" y="1190" type="curve" smooth="yes"/>
      <point x="777" y="1399"/>
      <point x="598" y="1462"/>
      <point x="410" y="1462" type="curve" smooth="yes"/>
      <point x="163" y="1462"/>
      <point x="67" y="1354"/>
      <point x="67" y="1181" type="curve" smooth="yes"/>
      <point x="67" y="1163"/>
      <point x="68" y="1143"/>
      <point x="70" y="1131" type="curve"/>
      <point x="157" y="1131" type="line"/>
      <point x="151" y="1156"/>
      <point x="149" y="1184"/>
      <point x="149" y="1205" type="curve" smooth="yes"/>
      <point x="149" y="1345"/>
      <point x="233" y="1448"/>
      <point x="407" y="1448" type="curve" smooth="yes"/>
      <point x="554" y="1448"/>
      <point x="683" y="1375"/>
      <point x="683" y="1183" type="curve" smooth="yes"/>
      <point x="683" y="877"/>
      <point x="354" y="956"/>
      <point x="354" y="571" type="curve" smooth="yes"/>
      <point x="354" y="511"/>
      <point x="362" y="369"/>
    </contour>
    <contour>
      <point x="411" y="-14" type="curve" smooth="yes"/>
      <point x="443" y="-14"/>
      <point x="467" y="10"/>
      <point x="467" y="43" type="curve" smooth="yes"/>
      <point x="467" y="76"/>
      <point x="442" y="98"/>
      <point x="411" y="98" type="curve" smooth="yes"/>
      <point x="380" y="98"/>
      <point x="355" y="76"/>
      <point x="355" y="43" type="curve" smooth="yes"/>
      <point x="355" y="10"/>
      <point x="379" y="-14"/>
    </contour>
  </outline>
</glyph>
<glyph name="A" format="2">
  <advance width="1314"/>
  <unicode hex="0041"/>
  <note>
A
</note>
  <anchor x="626" y="0" name="bottom"/>
  <anchor x="1193" y="0" name="ogonek"/>
  <anchor x="626" y="1430" name="top"/>
  <outline>
    <contour>
      <point x="41" y="0" type="line"/>
      <point x="65" y="0" type="line"/>
      <point x="634" y="1376" type="line"/>
      <point x="619" y="1365" type="line"/>
      <point x="1181" y="0" type="line"/>
      <point x="1273" y="0" type="line"/>
      <point x="656" y="1477" type="line"/>
    </contour>
    <contour>
      <point x="249" y="474" type="line"/>
      <point x="1015" y="474" type="line"/>
      <point x="1011" y="484" type="line"/>
      <point x="253" y="484" type="line"/>
    </contour>
  </outline>
</glyph>
<glyph name="C" format="2">
  <advance width="1408"/>
  <unicode hex="0043"/>
  <note>
C
</note>
  <anchor x="749" y="0" name="bottom"/>
  <anchor x="729" y="1430" name="top"/>
  <outline>
    <contour>
      <point x="805" y="-6" type="curve" smooth="yes"/>
      <point x="1046" y="-6"/>
      <point x="1202" y="98"/>
      <point x="1360" y="308" type="curve"/>
      <point x="1300" y="308" type="line"/>
      <point x="1143" y="90"/>
      <point x="977" y="4"/>
      <point x="811" y="4" type="curve" smooth="yes"/>
      <point x="462" y="4"/>
      <point x="172" y="315"/>
      <point x="172" y="718" type="curve" smooth="yes"/>
      <point x="172" y="1131"/>
      <point x="467" y="1430"/>
      <point x="804" y="1430" type="curve" smooth="yes"/>
      <point x="969" y="1430"/>
      <point x="1155" y="1343"/>
      <point x="1292" y="1128" type="curve"/>
      <point x="1347" y="1128" type="line"/>
      <point x="1211" y="1350"/>
      <point x="1029" y="1440"/>
      <point x="806" y="1440" type="curve" smooth="yes"/>
      <point x="413" y="1440"/>
      <point x="80" y="1154"/>
      <point x="80" y="715" type="curve" smooth="yes"/>
      <point x="80" y="254"/>
      <point x="423" y="-6"/>
    </contour>
  </outline>
</glyph>
<glyph name="E" format="2">
  <advance width="1092"/>
  <unicode hex="0045"/>
  <note>
E
</note>
  <anchor x="532" y="0" name="bottom"/>
  <anchor x="914" y="0" name="ogonek"/>
  <anchor x="632" y="1430" name="top"/>
  <anchor x="-13" y="1430" name="topleft"/>
  <outline>
    <contour>
      <point x="174" y="0" type="line"/>
      <point x="1024" y="0" type="line"/>
      <point x="1024" y="10" type="line"/>
      <point x="237" y="10" type="line"/>
      <point x="260" y="8" type="line"/>
      <point x="260" y="735" type="line"/>
      <point x="223" y="723" type="line"/>
      <point x="1024" y="723" type="line"/>
      <point x="1024" y="733" type="line"/>
      <point x="237" y="733" type="line"/>
      <point x="260" y="731" type="line"/>
      <point x="260" y="1422" type="line"/>
      <point x="235" y="1420" type="line"/>
      <point x="1024" y="1420" type="line"/>
      <point x="1024" y="1430" type="line"/>
      <point x="174" y="1430" type="line"/>
    </contour>
  </outline>
</glyph>
<glyph name="F" format="2">
  <advance width="1072"/>
  <unicode hex="0046"/>
  <note>
F
</note>
  <anchor x="536" y="0" name="bottom"/>
  <anchor x="536" y="1430" name="top"/>
  <outline>
    <contour>
      <point x="174" y="0" type="line"/>
      <point x="260" y="0" type="line"/>
      <point x="260" y="685" type="line"/>
      <point x="223" y="673" type="line"/>
      <point x="1024" y="673" type="line"/>
      <point x="1024" y="683" type="line"/>
      <point x="237" y="683" type="line"/>
      <point x="260" y="681" type="line"/>
      <point x="260" y="1422" type="line"/>
      <point x="235" y="1420" type="line"/>
      <point x="1024" y="1420" type="line"/>
      <point x="1024" y="1430" type="line"/>
      <point x="174" y="1430" type="line"/>
    </contour>
  </outline>
</glyph>
<glyph name="G" format="2">
  <advance width="1532"/>
  <unicode hex="0047"/>
  <note>
G
</note>
  <anchor x="761" y="0" name="bottom"/>
  <anchor x="761" y="1430" name="top"/>
  <outline>
    <contour>
      <point x="784" y="-26" type="curve" smooth="yes"/>
      <point x="1163" y="-26"/>
      <point x="1442" y="259"/>
      <point x="1482" y="624" type="curve"/>
      <point x="1390" y="624" type="line"/>
      <point x="1351" y="265"/>
      <point x="1091" y="-12"/>
      <point x="784" y="-12" type="curve" smooth="yes"/>
      <point x="451" y="-12"/>
      <point x="173" y="314"/>
      <point x="173" y="718" type="curve" smooth="yes"/>
      <point x="173" y="1127"/>
      <point x="459" y="1446"/>
      <point x="784" y="1446" type="curve" smooth="yes"/>
      <point x="988" y="1446"/>
      <point x="1177" y="1320"/>
      <point x="1289" y="1126" type="curve"/>
      <point x="1375" y="1126" type="line"/>
      <point x="1254" y="1327"/>
      <point x="1042" y="1460"/>
      <point x="784" y="1460" type="curve" smooth="yes"/>
      <point x="376" y="1460"/>
      <point x="81" y="1125"/>
      <point x="81" y="715" type="curve" smooth="yes"/>
      <point x="81" y="307"/>
      <point x="374" y="-26"/>
    </contour>
    <contour>
      <point x="856" y="614" type="line"/>
      <point x="1430" y="614" type="line"/>
      <point x="1430" y="624" type="line"/>
      <point x="856" y="624" type="line"/>
    </contour>
  </outline>
</glyph>
<glyph name="J" format="2">
  <advance width="645"/>
  <unicode hex="004A"/>
  <note>
J
</note>
  <anchor x="325" y="0" name="bottom"/>
  <anchor x="445" y="1430" name="top"/>
  <outline>
    <contour>
      <point x="30" y="-77" type="line"/>
      <point x="113" y="-130"/>
      <point x="153" y="-153"/>
      <point x="215" y="-153" type="curve" smooth="yes"/>
      <point x="365" y="-153"/>
      <point x="476" y="-20"/>
      <point x="476" y="252" type="curve" smooth="yes"/>
      <point x="476" y="1430" type="line"/>
      <point x="390" y="1430" type="line"/>
      <point x="390" y="164" type="line" smooth="yes"/>
      <point x="390" y="-106"/>
      <point x="258" y="-143"/>
      <point x="206" y="-143" type="curve" smooth="yes"/>
      <point x="150" y="-143"/>
      <point x="85" y="-100"/>
      <point x="30" y="-43" type="curve"/>
    </contour>
  </outline>
</glyph>
<glyph name="K" format="2">
  <advance width="1331"/>
  <unicode hex="004B"/>
  <note>
K
</note>
  <anchor x="632" y="0" name="bottom"/>
  <anchor x="632" y="1430" name="top"/>
  <outline>
    <contour>
      <point x="174" y="0" type="line"/>
      <point x="260" y="0" type="line"/>
      <point x="260" y="1430" type="line"/>
      <point x="174" y="1430" type="line"/>
    </contour>
    <contour>
      <point x="219" y="361" type="line"/>
      <point x="1216" y="1430" type="line"/>
      <point x="1195" y="1430" type="line"/>
      <point x="241" y="410" type="line"/>
    </contour>
    <contour>
      <point x="1202" y="0" type="line"/>
      <point x="1295" y="0" type="line"/>
      <point x="611" y="794" type="line"/>
      <point x="565" y="745" type="line"/>
    </contour>
  </outline>
</glyph>
<glyph name="N" format="2">
  <advance width="1479"/>
  <unicode hex="004E"/>
  <note>
N
</note>
  <anchor x="740" y="0" name="bottom"/>
  <anchor x="740" y="1430" name="top"/>
  <outline>
    <contour>
      <point x="174" y="0" type="line"/>
      <point x="184" y="0" type="line"/>
      <point x="184" y="1405" type="line"/>
      <point x="178" y="1329" type="line"/>
      <point x="1302" y="-24" type="line"/>
      <point x="1305" y="-24" type="line"/>
      <point x="1305" y="1430" type="line"/>
      <point x="1295" y="1430" type="line"/>
      <point x="1295" y="105" type="line"/>
      <point x="1298" y="110" type="line"/>
      <point x="176" y="1460" type="line"/>
      <point x="174" y="1460" type="line"/>
    </contour>
  </outline>
</glyph>
<glyph name="R" format="2">
  <advance width="1122"/>
  <unicode hex="0052"/>
  <note>
R
</note>
  <anchor x="570" y="0" name="bottom"/>
  <anchor x="570" y="1430" name="top"/>
  <outline>
    <contour>
      <point x="174" y="0" type="line"/>
      <point x="260" y="0" type="line"/>
      <point x="260" y="629" type="line"/>
      <point x="221" y="626" type="line"/>
      <point x="506" y="626" type="line"/>
      <point x="554" y="625" type="line"/>
      <point x="815" y="633"/>
      <point x="1008" y="771"/>
      <point x="1008" y="1010" type="curve" smooth="yes"/>
      <point x="1008" y="1259"/>
      <point x="799" y="1430"/>
      <point x="560" y="1430" type="curve" smooth="yes"/>
      <point x="174" y="1430" type="line"/>
    </contour>
    <contour>
      <point x="221" y="636" type="line"/>
      <point x="260" y="631" type="line"/>
      <point x="260" y="1426" type="line"/>
      <point x="221" y="1420" type="line"/>
      <point x="560" y="1420" type="line" smooth="yes"/>
      <point x="765" y="1420"/>
      <point x="940" y="1249"/>
      <point x="940" y="1009" type="curve" smooth="yes"/>
      <point x="940" y="762"/>
      <point x="756" y="636"/>
      <point x="560" y="636" type="curve" smooth="yes"/>
    </contour>
    <contour>
      <point x="482" y="629" type="line"/>
      <point x="536" y="619"/>
      <point x="615" y="650"/>
      <point x="732" y="533" type="curve" smooth="yes"/>
      <point x="794" y="471"/>
      <point x="847" y="393"/>
      <point x="925" y="200" type="curve" smooth="yes"/>
      <point x="941" y="160"/>
      <point x="978" y="62"/>
      <point x="997" y="0" type="curve"/>
      <point x="1046" y="0" type="line"/>
      <point x="1019" y="69"/>
      <point x="979" y="178"/>
      <point x="947" y="247" type="curve" smooth="yes"/>
      <point x="909" y="331"/>
      <point x="857" y="437"/>
      <point x="783" y="514" type="curve" smooth="yes"/>
      <point x="733" y="566"/>
      <point x="656" y="641"/>
      <point x="540" y="632" type="curve"/>
    </contour>
  </outline>
</glyph>
<glyph name="S" format="2">
  <advance width="1127"/>
  <unicode hex="0053"/>
  <note>
S
</note>
  <anchor x="562" y="0" name="bottom"/>
  <anchor x="562" y="1430" name="top"/>
  <outline>
    <contour>
      <point x="550" y="-26" type="curve" smooth="yes"/>
      <point x="894" y="-26"/>
      <point x="1050" y="149"/>
      <point x="1050" y="373" type="curve" smooth="yes"/>
      <point x="1050" y="647"/>
      <point x="816" y="722"/>
      <point x="571" y="812" type="curve" smooth="yes"/>
      <point x="301" y="911"/>
      <point x="210" y="1008"/>
      <point x="210" y="1174" type="curve" smooth="yes"/>
      <point x="210" y="1351"/>
      <point x="340" y="1450"/>
      <point x="573" y="1450" type="curve" smooth="yes"/>
      <point x="774" y="1450"/>
      <point x="945" y="1324"/>
      <point x="963" y="1144" type="curve"/>
      <point x="1021" y="1144" type="line"/>
      <point x="991" y="1336"/>
      <point x="817" y="1464"/>
      <point x="581" y="1464" type="curve" smooth="yes"/>
      <point x="285" y="1464"/>
      <point x="128" y="1298"/>
      <point x="128" y="1133" type="curve" smooth="yes"/>
      <point x="128" y="942"/>
      <point x="283" y="832"/>
      <point x="534" y="742" type="curve" smooth="yes"/>
      <point x="803" y="646"/>
      <point x="965" y="558"/>
      <point x="965" y="344" type="curve" smooth="yes"/>
      <point x="965" y="120"/>
      <point x="866" y="-12"/>
      <point x="555" y="-12" type="curve" smooth="yes"/>
      <point x="317" y="-12"/>
      <point x="160" y="100"/>
      <point x="126" y="393" type="curve"/>
      <point x="65" y="393" type="line"/>
      <point x="95" y="100"/>
      <point x="267" y="-26"/>
    </contour>
  </outline>
</glyph>
<glyph name="T" format="2">
  <advance width="1090"/>
  <unicode hex="0054"/>
  <note>
T
</note>
  <anchor x="545" y="0" name="bottom"/>
  <anchor x="545" y="715" name="center"/>
  <anchor x="545" y="1430" name="top"/>
  <outline>
    <contour>
      <point x="502" y="0" type="line"/>
      <point x="588" y="0" type="line"/>
      <point x="588" y="1426" type="line"/>
      <point x="551" y="1420" type="line"/>
      <point x="1061" y="1420" type="line"/>
      <point x="1061" y="1430" type="line"/>
      <point x="29" y="1430" type="line"/>
      <point x="29" y="1420" type="line"/>
      <point x="539" y="1420" type="line"/>
      <point x="502" y="1426" type="line"/>
    </contour>
  </outline>
</glyph>
<glyph name="V" format="2">
  <advance width="1262"/>
  <unicode hex="0056"/>
  <note>
V
</note>
  <anchor x="632" y="0" name="bottom"/>
  <anchor x="632" y="1430" name="top"/>
  <outline>
    <contour>
      <point x="638" y="-41" type="line"/>
      <point x="1220" y="1429" type="line"/>
      <point x="1209" y="1429" type="line"/>
      <point x="643" y="0" type="line"/>
      <point x="672" y="58" type="line"/>
      <point x="120" y="1430" type="line"/>
      <point x="42" y="1429" type="line"/>
    </contour>
  </outline>
</glyph>
<glyph name="X" format="2">
  <advance width="1177"/>
  <unicode hex="0058"/>
  <note>
X
</note>
  <anchor x="588" y="0" name="bottom"/>
  <anchor x="588" y="1430" name="top"/>
  <outline>
    <contour>
      <point x="1048" y="0" type="line"/>
      <point x="1127" y="0" type="line"/>
      <point x="161" y="1430" type="line"/>
      <point x="82" y="1430" type="line"/>
    </contour>
    <contour>
      <point x="46" y="0" type="line"/>
      <point x="71" y="0" type="line"/>
      <point x="598" y="722" type="line"/>
      <point x="587" y="745" type="line"/>
    </contour>
    <contour>
      <point x="606" y="722" type="line"/>
      <point x="1105" y="1430" type="line"/>
      <point x="1080" y="1430" type="line"/>
      <point x="595" y="745" type="line"/>
    </contour>
  </outline>
</glyph>
<glyph name="Y" format="2">
  <advance width="1062"/>
  <unicode hex="0059"/>
  <note>
Y
</note>
  <guideline x="808" y="1192" angle="245.6375"/>
  <guideline x="337" y="1004" angle="294.3172"/>
  <anchor x="541" y="0" name="bottom"/>
  <anchor x="531" y="1430" name="top"/>
  <anchor x="12" y="1430" name="topleft"/>
  <outline>
    <contour>
      <point x="497" y="0" type="line"/>
      <point x="583" y="0" type="line"/>
      <point x="583" y="693" type="line"/>
      <point x="1028" y="1430" type="line"/>
      <point x="1014" y="1430" type="line"/>
      <point x="553" y="667" type="line"/>
      <point x="577" y="699" type="line"/>
      <point x="136" y="1430" type="line"/>
      <point x="34" y="1430" type="line"/>
      <point x="497" y="660" type="line"/>
    </contour>
  </outline>
</glyph>
<glyph name="Z" format="2">
  <advance width="1098"/>
  <unicode hex="005A"/>
  <note>
Z
</note>
  <anchor x="551" y="0" name="bottom"/>
  <anchor x="551" y="715" name="center"/>
  <anchor x="551" y="1430" name="top"/>
  <outline>
    <contour>
      <point x="44" y="0" type="line"/>
      <point x="1048" y="0" type="line"/>
      <point x="1047" y="26" type="line"/>
      <point x="78" y="26" type="line"/>
      <point x="131" y="14" type="line"/>
      <point x="1028" y="1430" type="line"/>
      <point x="99" y="1430" type="line"/>
      <point x="99" y="1404" type="line"/>
      <point x="995" y="1404" type="line"/>
      <point x="940" y="1414" type="line"/>
    </contour>
  </outline>
</glyph>
<glyph name="bracketleft" format="2">
  <advance width="524"/>
  <unicode hex="005B"/>
  <note>
bracketleft
</note>
  <outline>
    <contour>
      <point x="169" y="-402" type="line"/>
      <point x="485" y="-402" type="line"/>
      <point x="485" y="-352" type="line"/>
      <point x="209" y="-352" type="line"/>
      <point x="209" y="1412" type="line"/>
      <point x="485" y="1412" type="line"/>
      <point x="485" y="1462" type="line"/>
      <point x="169" y="1462" type="line"/>
    </contour>
  </outline>
</glyph>
<glyph name="bracketright" format="2">
  <advance width="524"/>
  <unicode hex="005D"/>
  <note>
bracketright
</note>
  <outline>
    <contour>
      <point x="39" y="-402" type="line"/>
      <point x="355" y="-402" type="line"/>
      <point x="355" y="1462" type="line"/>
      <point x="39" y="1462" type="line"/>
      <point x="39" y="1412" type="line"/>
      <point x="315" y="1412" type="line"/>
      <point x="315" y="-352" type="line"/>
      <point x="39" y="-352" type="line"/>
    </contour>
  </outline>
</glyph>
<glyph name="b" format="2">
  <advance width="1098"/>
  <unicode hex="0062"/>
  <note>
b
</note>
  <anchor x="552" y="0" name="bottom"/>
  <anchor x="552" y="1514" name="top"/>
  <outline>
    <contour>
      <point x="595" y="-24" type="curve" smooth="yes"/>
      <point x="858" y="-24"/>
      <point x="1046" y="172"/>
      <point x="1046" y="454" type="curve" smooth="yes"/>
      <point x="1046" y="735"/>
      <point x="859" y="938"/>
      <point x="595" y="938" type="curve" smooth="yes"/>
      <point x="419" y="938"/>
      <point x="278" y="848"/>
      <point x="204" y="704" type="curve"/>
      <point x="213" y="693" type="line"/>
      <point x="213" y="1514" type="line"/>
      <point x="141" y="1514" type="line"/>
      <point x="141" y="0" type="line"/>
      <point x="213" y="0" type="line"/>
      <point x="213" y="217" type="line"/>
      <point x="204" y="206" type="line"/>
      <point x="278" y="63"/>
      <point x="419" y="-24"/>
    </contour>
    <contour>
      <point x="595" y="-11" type="curve" smooth="yes"/>
      <point x="368" y="-11"/>
      <point x="221" y="193"/>
      <point x="221" y="463" type="curve" smooth="yes"/>
      <point x="221" y="741"/>
      <point x="379" y="925"/>
      <point x="595" y="925" type="curve" smooth="yes"/>
      <point x="820" y="925"/>
      <point x="969" y="723"/>
      <point x="969" y="453" type="curve" smooth="yes"/>
      <point x="969" y="175"/>
      <point x="811" y="-11"/>
    </contour>
  </outline>
</glyph>
<glyph name="c" format="2">
  <advance width="872"/>
  <unicode hex="0063"/>
  <note>
c
</note>
  <anchor x="445" y="-15" name="bottom"/>
  <anchor x="505" y="924" name="top"/>
  <outline>
    <contour>
      <point x="509" y="-24" type="curve" smooth="yes"/>
      <point x="635" y="-24"/>
      <point x="745" y="20"/>
      <point x="825" y="95" type="curve"/>
      <point x="825" y="178" type="line"/>
      <point x="758" y="59"/>
      <point x="644" y="-11"/>
      <point x="509" y="-11" type="curve" smooth="yes"/>
      <point x="278" y="-11"/>
      <point x="129" y="193"/>
      <point x="129" y="463" type="curve" smooth="yes"/>
      <point x="129" y="741"/>
      <point x="288" y="925"/>
      <point x="509" y="925" type="curve" smooth="yes"/>
      <point x="648" y="925"/>
      <point x="759" y="851"/>
      <point x="825" y="732" type="curve"/>
      <point x="825" y="816" type="line"/>
      <point x="745" y="893"/>
      <point x="636" y="938"/>
      <point x="509" y="938" type="curve" smooth="yes"/>
      <point x="241" y="938"/>
      <point x="52" y="736"/>
      <point x="52" y="454" type="curve" smooth="yes"/>
      <point x="52" y="173"/>
      <point x="240" y="-24"/>
    </contour>
  </outline>
</glyph>
<glyph name="d" format="2">
  <advance width="1098"/>
  <unicode hex="0064"/>
  <note>
d
</note>
  <anchor x="501" y="0" name="bottom"/>
  <anchor x="922" y="1269" name="center"/>
  <anchor x="551" y="1514" name="top"/>
  <anchor x="1079" y="1514" name="topright"/>
  <outline>
    <contour>
      <point x="503" y="-24" type="curve" smooth="yes"/>
      <point x="679" y="-24"/>
      <point x="820" y="63"/>
      <point x="894" y="206" type="curve"/>
      <point x="885" y="217" type="line"/>
      <point x="885" y="0" type="line"/>
      <point x="957" y="0" type="line"/>
      <point x="957" y="1514" type="line"/>
      <point x="885" y="1514" type="line"/>
      <point x="885" y="693" type="line"/>
      <point x="894" y="704" type="line"/>
      <point x="820" y="848"/>
      <point x="679" y="938"/>
      <point x="503" y="938" type="curve" smooth="yes"/>
      <point x="239" y="938"/>
      <point x="52" y="735"/>
      <point x="52" y="454" type="curve" smooth="yes"/>
      <point x="52" y="172"/>
      <point x="240" y="-24"/>
    </contour>
    <contour>
      <point x="503" y="-11" type="curve" smooth="yes"/>
      <point x="287" y="-11"/>
      <point x="129" y="175"/>
      <point x="129" y="453" type="curve" smooth="yes"/>
      <point x="129" y="723"/>
      <point x="278" y="925"/>
      <point x="503" y="925" type="curve" smooth="yes"/>
      <point x="719" y="925"/>
      <point x="877" y="741"/>
      <point x="877" y="463" type="curve" smooth="yes"/>
      <point x="877" y="193"/>
      <point x="730" y="-11"/>
    </contour>
  </outline>
</glyph>
<glyph name="g" format="2">
  <advance width="1108"/>
  <unicode hex="0067"/>
  <note>
g
</note>
  <anchor x="545" y="-526" name="bottom"/>
  <anchor x="505" y="914" name="top"/>
  <outline>
    <contour>
      <point x="503" y="-577" type="curve" smooth="yes"/>
      <point x="888" y="-577"/>
      <point x="966" y="-274"/>
      <point x="967" y="120" type="curve" smooth="yes"/>
      <point x="970" y="910" type="line"/>
      <point x="898" y="910" type="line"/>
      <point x="898" y="638" type="line"/>
      <point x="905" y="647" type="line"/>
      <point x="841" y="824"/>
      <point x="690" y="938"/>
      <point x="496" y="938" type="curve" smooth="yes"/>
      <point x="238" y="938"/>
      <point x="52" y="736"/>
      <point x="52" y="454" type="curve" smooth="yes"/>
      <point x="52" y="173"/>
      <point x="238" y="-24"/>
      <point x="496" y="-24" type="curve" smooth="yes"/>
      <point x="690" y="-24"/>
      <point x="841" y="87"/>
      <point x="905" y="261" type="curve"/>
      <point x="898" y="271" type="line"/>
      <point x="898" y="120" type="line" smooth="yes"/>
      <point x="898" y="-361"/>
      <point x="796" y="-567"/>
      <point x="489" y="-567" type="curve" smooth="yes"/>
      <point x="265" y="-567"/>
      <point x="170" y="-457"/>
      <point x="140" y="-324" type="curve"/>
      <point x="73" y="-324" type="line"/>
      <point x="141" y="-555"/>
      <point x="395" y="-577"/>
    </contour>
    <contour>
      <point x="496" y="-11" type="curve" smooth="yes"/>
      <point x="274" y="-11"/>
      <point x="131" y="194"/>
      <point x="131" y="463" type="curve" smooth="yes"/>
      <point x="131" y="742"/>
      <point x="285" y="925"/>
      <point x="496" y="925" type="curve" smooth="yes"/>
      <point x="719" y="925"/>
      <point x="863" y="722"/>
      <point x="863" y="453" type="curve" smooth="yes"/>
      <point x="863" y="174"/>
      <point x="707" y="-11"/>
    </contour>
  </outline>
</glyph>
<glyph name="l" format="2">
  <advance width="354"/>
  <unicode hex="006C"/>
  <note>
l
</note>
  <anchor x="67" y="0" name="bottom"/>
  <anchor x="177" y="780" name="center"/>
  <anchor x="351" y="783" name="dot"/>
  <anchor x="177" y="1514" name="top"/>
  <anchor x="332" y="1484" name="topright"/>
  <outline>
    <contour>
      <point x="141" y="0" type="line"/>
      <point x="213" y="0" type="line"/>
      <point x="213" y="1514" type="line"/>
      <point x="141" y="1514" type="line"/>
    </contour>
  </outline>
</glyph>
<glyph name="n" format="2">
  <advance width="1015"/>
  <unicode hex="006E"/>
  <note>
n
</note>
  <anchor x="492" y="0" name="bottom"/>
  <anchor x="492" y="914" name="top"/>
  <outline>
    <contour>
      <point x="128" y="0" type="line"/>
      <point x="200" y="0" type="line"/>
      <point x="200" y="612" type="line" smooth="yes"/>
      <point x="200" y="776"/>
      <point x="364" y="926"/>
      <point x="573" y="926" type="curve" smooth="yes"/>
      <point x="757" y="926"/>
      <point x="841" y="810"/>
      <point x="841" y="539" type="curve" smooth="yes"/>
      <point x="841" y="0" type="line"/>
      <point x="913" y="0" type="line"/>
      <point x="913" y="536" type="line" smooth="yes"/>
      <point x="913" y="810"/>
      <point x="787" y="938"/>
      <point x="583" y="938" type="curve" smooth="yes"/>
      <point x="386" y="938"/>
      <point x="213" y="819"/>
      <point x="192" y="635" type="curve"/>
      <point x="200" y="652" type="line"/>
      <point x="200" y="910" type="line"/>
      <point x="128" y="910" type="line"/>
    </contour>
  </outline>
</glyph>
<glyph name="o" format="2">
  <advance width="1020"/>
  <unicode hex="006F"/>
  <note>
o
</note>
  <anchor x="510" y="0" name="bottom"/>
  <anchor x="510" y="457" name="center"/>
  <anchor x="647" y="0" name="ogonek"/>
  <anchor x="510" y="914" name="top"/>
  <anchor x="973" y="914" name="topright"/>
  <outline>
    <contour>
      <point x="509" y="-24" type="curve" smooth="yes"/>
      <point x="777" y="-24"/>
      <point x="968" y="172"/>
      <point x="968" y="454" type="curve" smooth="yes"/>
      <point x="968" y="735"/>
      <point x="778" y="938"/>
      <point x="509" y="938" type="curve" smooth="yes"/>
      <point x="241" y="938"/>
      <point x="52" y="736"/>
      <point x="52" y="454" type="curve" smooth="yes"/>
      <point x="52" y="173"/>
      <point x="240" y="-24"/>
    </contour>
    <contour>
      <point x="509" y="-11" type="curve" smooth="yes"/>
      <point x="278" y="-11"/>
      <point x="129" y="193"/>
      <point x="129" y="463" type="curve" smooth="yes"/>
      <point x="129" y="741"/>
      <point x="288" y="925"/>
      <point x="509" y="925" type="curve" smooth="yes"/>
      <point x="739" y="925"/>
      <point x="891" y="723"/>
      <point x="891" y="453" type="curve" smooth="yes"/>
      <point x="891" y="175"/>
      <point x="729" y="-11"/>
    </contour>
  </outline>
</glyph>
<glyph name="q" format="2">
  <advance width="1085"/>
  <unicode hex="0071"/>
  <note>
q
</note>
  <anchor x="540" y="0" name="bottom"/>
  <anchor x="540" y="914" name="top"/>
  <outline>
    <contour>
      <point x="885" y="-600" type="line"/>
      <point x="957" y="-600" type="line"/>
      <point x="957" y="910" type="line"/>
      <point x="885" y="910" type="line"/>
      <point x="885" y="697" type="line"/>
      <point x="894" y="708" type="line"/>
      <point x="820" y="851"/>
      <point x="679" y="938"/>
      <point x="503" y="938" type="curve" smooth="yes"/>
      <point x="240" y="938"/>
      <point x="52" y="742"/>
      <point x="52" y="460" type="curve" smooth="yes"/>
      <point x="52" y="179"/>
      <point x="239" y="-24"/>
      <point x="503" y="-24" type="curve" smooth="yes"/>
      <point x="679" y="-24"/>
      <point x="820" y="66"/>
      <point x="894" y="210" type="curve"/>
      <point x="885" y="221" type="line"/>
    </contour>
    <contour>
      <point x="503" y="-11" type="curve" smooth="yes"/>
      <point x="278" y="-11"/>
      <point x="129" y="191"/>
      <point x="129" y="461" type="curve" smooth="yes"/>
      <point x="129" y="739"/>
      <point x="287" y="925"/>
      <point x="503" y="925" type="curve" smooth="yes"/>
      <point x="730" y="925"/>
      <point x="877" y="721"/>
      <point x="877" y="451" type="curve" smooth="yes"/>
      <point x="877" y="173"/>
      <point x="719" y="-11"/>
    </contour>
  </outline>
</glyph>
<glyph name="u" format="2">
  <advance width="995"/>
  <unicode hex="0075"/>
  <note>
u
</note>
  <anchor x="465" y="0" name="bottom"/>
  <anchor x="832" y="0" name="ogonek"/>
  <anchor x="495" y="914" name="top"/>
  <anchor x="1012" y="914" name="topright"/>
  <outline>
    <contour>
      <point x="433" y="-18" type="curve" smooth="yes"/>
      <point x="657" y="-18"/>
      <point x="778" y="118"/>
      <point x="803" y="355" type="curve"/>
      <point x="796" y="322" type="line"/>
      <point x="796" y="0" type="line"/>
      <point x="868" y="0" type="line"/>
      <point x="868" y="910" type="line"/>
      <point x="796" y="910" type="line"/>
      <point x="796" y="490" type="line" smooth="yes"/>
      <point x="796" y="200"/>
      <point x="688" y="-6"/>
      <point x="443" y="-6" type="curve" smooth="yes"/>
      <point x="250" y="-6"/>
      <point x="175" y="97"/>
      <point x="175" y="383" type="curve" smooth="yes"/>
      <point x="175" y="910" type="line"/>
      <point x="103" y="910" type="line"/>
      <point x="103" y="366" type="line" smooth="yes"/>
      <point x="103" y="90"/>
      <point x="204" y="-18"/>
    </contour>
  </outline>
</glyph>
<glyph name="w" format="2">
  <advance width="1376"/>
  <unicode hex="0077"/>
  <note>
w
</note>
  <anchor x="689" y="0" name="bottom"/>
  <anchor x="689" y="914" name="top"/>
  <outline>
    <contour>
      <point x="951" y="-16" type="line"/>
      <point x="958" y="-16" type="line"/>
      <point x="1362" y="910" type="line"/>
      <point x="1349" y="910" type="line"/>
      <point x="961" y="22" type="line"/>
      <point x="990" y="64" type="line"/>
      <point x="611" y="910" type="line"/>
      <point x="536" y="910" type="line"/>
    </contour>
    <contour>
      <point x="429" y="-16" type="line"/>
      <point x="436" y="-16" type="line"/>
      <point x="705" y="601" type="line"/>
      <point x="699" y="618" type="line"/>
      <point x="439" y="22" type="line"/>
      <point x="468" y="64" type="line"/>
      <point x="89" y="910" type="line"/>
      <point x="14" y="910" type="line"/>
    </contour>
    <contour>
      <point x="717" y="601" type="line"/>
      <point x="852" y="910" type="line"/>
      <point x="839" y="910" type="line"/>
      <point x="711" y="618" type="line"/>
    </contour>
  </outline>
</glyph>
<glyph name="z" format="2">
  <advance width="761"/>
  <unicode hex="007A"/>
  <note>
z
</note>
  <anchor x="380" y="0" name="bottom"/>
  <anchor x="380" y="457" name="center"/>
  <anchor x="380" y="914" name="top"/>
  <outline>
    <contour>
      <point x="22" y="0" type="line"/>
      <point x="714" y="0" type="line"/>
      <point x="714" y="10" type="line"/>
      <point x="94" y="10" type="line"/>
      <point x="101" y="6" type="line"/>
      <point x="735" y="910" type="line"/>
      <point x="54" y="910" type="line"/>
      <point x="54" y="900" type="line"/>
      <point x="665" y="900" type="line"/>
      <point x="656" y="903" type="line"/>
    </contour>
  </outline>
</glyph>
<glyph name="braceright" format="2">
  <advance width="523"/>
  <unicode hex="007D"/>
  <note>
braceright
</note>
  <outline>
    <contour>
      <point x="39" y="-402" type="line"/>
      <point x="245" y="-402"/>
      <point x="355" y="-262"/>
      <point x="355" y="-62" type="curve" smooth="yes"/>
      <point x="355" y="330" type="line" smooth="yes"/>
      <point x="355" y="400"/>
      <point x="415" y="448"/>
      <point x="455" y="478" type="curve"/>
      <point x="415" y="508"/>
      <point x="355" y="556"/>
      <point x="355" y="626" type="curve" smooth="yes"/>
      <point x="355" y="1122" type="line" smooth="yes"/>
      <point x="355" y="1322"/>
      <point x="243" y="1462"/>
      <point x="39" y="1462" type="curve"/>
      <point x="39" y="1412" type="line"/>
      <point x="219" y="1412"/>
      <point x="315" y="1272"/>
      <point x="315" y="1052" type="curve" smooth="yes"/>
      <point x="315" y="626" type="line" smooth="yes"/>
      <point x="315" y="556"/>
      <point x="375" y="508"/>
      <point x="415" y="478" type="curve"/>
      <point x="375" y="450"/>
      <point x="315" y="400"/>
      <point x="315" y="330" type="curve" smooth="yes"/>
      <point x="315" y="8" type="line" smooth="yes"/>
      <point x="315" y="-212"/>
      <point x="219" y="-352"/>
      <point x="39" y="-352" type="curve"/>
    </contour>
  </outline>
</glyph>
<glyph name="Euro" format="2">
  <advance width="1371"/>
  <unicode hex="0080"/>
  <note>
Euro
</note>
  <outline>
    <contour>
      <point x="816" y="-6" type="curve" smooth="yes"/>
      <point x="1025" y="-6"/>
      <point x="1159" y="98"/>
      <point x="1261" y="308" type="curve"/>
      <point x="1209" y="308" type="line"/>
      <point x="1108" y="90"/>
      <point x="966" y="24"/>
      <point x="822" y="24" type="curve" smooth="yes"/>
      <point x="520" y="24"/>
      <point x="316" y="316"/>
      <point x="316" y="718" type="curve" smooth="yes"/>
      <point x="316" y="1131"/>
      <point x="525" y="1410"/>
      <point x="816" y="1410" type="curve" smooth="yes"/>
      <point x="957" y="1410"/>
      <point x="1119" y="1343"/>
      <point x="1211" y="1128" type="curve"/>
      <point x="1259" y="1128" type="line"/>
      <point x="1167" y="1350"/>
      <point x="1010" y="1440"/>
      <point x="817" y="1440" type="curve" smooth="yes"/>
      <point x="478" y="1440"/>
      <point x="251" y="1154"/>
      <point x="251" y="715" type="curve" smooth="yes"/>
      <point x="251" y="254"/>
      <point x="487" y="-6"/>
    </contour>
    <contour>
      <point x="94" y="536" type="line"/>
      <point x="874" y="536" type="line"/>
      <point x="880" y="562" type="line"/>
      <point x="100" y="562" type="line"/>
    </contour>
    <contour>
      <point x="142" y="838" type="line"/>
      <point x="922" y="838" type="line"/>
      <point x="928" y="864" type="line"/>
      <point x="148" y="864" type="line"/>
    </contour>
  </outline>
</glyph>
<glyph name="currency" format="2">
  <advance width="1085"/>
  <unicode hex="00A4"/>
  <note>
currency
</note>
  <outline>
    <contour>
      <point x="168" y="281" type="line"/>
      <point x="354" y="477" type="line"/>
      <point x="407" y="432"/>
      <point x="475" y="405"/>
      <point x="549" y="405" type="curve" smooth="yes"/>
      <point x="619" y="405"/>
      <point x="682" y="429"/>
      <point x="733" y="468" type="curve"/>
      <point x="912" y="281" type="line"/>
      <point x="943" y="313" type="line"/>
      <point x="766" y="498" type="line"/>
      <point x="818" y="552"/>
      <point x="849" y="625"/>
      <point x="849" y="705" type="curve" smooth="yes"/>
      <point x="849" y="787"/>
      <point x="816" y="861"/>
      <point x="763" y="916" type="curve"/>
      <point x="943" y="1104" type="line"/>
      <point x="910" y="1135" type="line"/>
      <point x="729" y="945" type="line"/>
      <point x="679" y="983"/>
      <point x="617" y="1005"/>
      <point x="549" y="1005" type="curve" smooth="yes"/>
      <point x="477" y="1005"/>
      <point x="410" y="980"/>
      <point x="359" y="937" type="curve"/>
      <point x="170" y="1135" type="line"/>
      <point x="137" y="1104" type="line"/>
      <point x="326" y="906" type="line"/>
      <point x="278" y="853"/>
      <point x="249" y="783"/>
      <point x="249" y="705" type="curve" smooth="yes"/>
      <point x="249" y="629"/>
      <point x="277" y="560"/>
      <point x="323" y="508" type="curve"/>
      <point x="137" y="313" type="line"/>
    </contour>
    <contour>
      <point x="549" y="446" type="curve" smooth="yes"/>
      <point x="406" y="446"/>
      <point x="290" y="562"/>
      <point x="290" y="705" type="curve" smooth="yes"/>
      <point x="290" y="848"/>
      <point x="406" y="964"/>
      <point x="549" y="964" type="curve" smooth="yes"/>
      <point x="692" y="964"/>
      <point x="808" y="848"/>
      <point x="808" y="705" type="curve" smooth="yes"/>
      <point x="808" y="562"/>
      <point x="692" y="446"/>
    </contour>
  </outline>
</glyph>
<glyph name="logicalnot" format="2">
  <advance width="936"/>
  <unicode hex="00AC"/>
  <note>
logicalnot
</note>
  <outline>
    <contour>
      <point x="990" y="351" type="line"/>
      <point x="1030" y="351" type="line"/>
      <point x="1030" y="861" type="line"/>
      <point x="91" y="861" type="line"/>
      <point x="91" y="835" type="line"/>
      <point x="990" y="835" type="line"/>
    </contour>
  </outline>
</glyph>
<glyph name="degree" format="2">
  <advance width="622"/>
  <unicode hex="00B0"/>
  <note>
degree
</note>
  <outline>
    <contour>
      <point x="309" y="1061" type="curve" smooth="yes"/>
      <point x="406" y="1061"/>
      <point x="494" y="1144"/>
      <point x="494" y="1245" type="curve" smooth="yes"/>
      <point x="494" y="1346"/>
      <point x="406" y="1429"/>
      <point x="311" y="1429" type="curve" smooth="yes"/>
      <point x="214" y="1429"/>
      <point x="128" y="1348"/>
      <point x="128" y="1245" type="curve" smooth="yes"/>
      <point x="128" y="1142"/>
      <point x="213" y="1061"/>
    </contour>
    <contour>
      <point x="311" y="1073" type="curve" smooth="yes"/>
      <point x="221" y="1073"/>
      <point x="149" y="1150"/>
      <point x="149" y="1245" type="curve" smooth="yes"/>
      <point x="149" y="1339"/>
      <point x="221" y="1416"/>
      <point x="311" y="1416" type="curve" smooth="yes"/>
      <point x="401" y="1416"/>
      <point x="472" y="1339"/>
      <point x="472" y="1245" type="curve" smooth="yes"/>
      <point x="472" y="1150"/>
      <point x="401" y="1073"/>
    </contour>
  </outline>
</glyph>
<glyph name="plusminus" format="2">
  <advance width="936"/>
  <unicode hex="00B1"/>
  <note>
plusminus
</note>
  <outline>
    <contour>
      <point x="398" y="405" type="line"/>
      <point x="418" y="405" type="line"/>
      <point x="418" y="658" type="line"/>
      <point x="696" y="658" type="line"/>
      <point x="696" y="678" type="line"/>
      <point x="418" y="678" type="line"/>
      <point x="418" y="931" type="line"/>
      <point x="398" y="931" type="line"/>
      <point x="398" y="678" type="line"/>
      <point x="120" y="678" type="line"/>
      <point x="120" y="658" type="line"/>
      <point x="398" y="658" type="line"/>
    </contour>
    <contour>
      <point x="119" y="263" type="line"/>
      <point x="695" y="263" type="line"/>
      <point x="695" y="283" type="line"/>
      <point x="119" y="283" type="line"/>
    </contour>
  </outline>
</glyph>
<glyph name="paragraph" format="2">
  <advance width="1019"/>
  <unicode hex="00B6"/>
  <note>
paragraph
</note>
  <outline>
    <contour>
      <point x="458" y="0" type="line"/>
      <point x="544" y="0" type="line"/>
      <point x="544" y="1434" type="line"/>
      <point x="706" y="1434" type="line"/>
      <point x="706" y="0" type="line"/>
      <point x="792" y="0" type="line"/>
      <point x="792" y="1434" type="line"/>
      <point x="888" y="1434" type="line"/>
      <point x="888" y="1444" type="line"/>
      <point x="476" y="1444" type="line" smooth="yes"/>
      <point x="244" y="1444"/>
      <point x="92" y="1308"/>
      <point x="92" y="1104" type="curve" smooth="yes"/>
      <point x="92" y="908"/>
      <point x="232" y="774"/>
      <point x="458" y="764" type="curve"/>
    </contour>
  </outline>
</glyph>
<glyph name="ordmasculine" format="2">
  <advance width="690"/>
  <unicode hex="00BA"/>
  <note>
ordmasculine
</note>
  <outline>
    <contour>
      <point x="344" y="860" type="curve" smooth="yes"/>
      <point x="478" y="860"/>
      <point x="626" y="964"/>
      <point x="626" y="1147" type="curve" smooth="yes"/>
      <point x="626" y="1329"/>
      <point x="480" y="1438"/>
      <point x="344" y="1438" type="curve" smooth="yes"/>
      <point x="210" y="1438"/>
      <point x="64" y="1331"/>
      <point x="64" y="1147" type="curve" smooth="yes"/>
      <point x="64" y="964"/>
      <point x="210" y="860"/>
    </contour>
    <contour>
      <point x="345" y="868" type="curve" smooth="yes"/>
      <point x="223" y="868"/>
      <point x="114" y="974"/>
      <point x="114" y="1147" type="curve" smooth="yes"/>
      <point x="114" y="1320"/>
      <point x="224" y="1429"/>
      <point x="345" y="1429" type="curve" smooth="yes"/>
      <point x="466" y="1429"/>
      <point x="576" y="1320"/>
      <point x="576" y="1147" type="curve" smooth="yes"/>
      <point x="576" y="974"/>
      <point x="467" y="868"/>
    </contour>
    <contour>
      <point x="101" y="747" type="line"/>
      <point x="589" y="747" type="line"/>
      <point x="589" y="767" type="line"/>
      <point x="101" y="767" type="line"/>
    </contour>
  </outline>
</glyph>
<glyph name="eth" format="2">
  <advance width="1007"/>
  <unicode hex="00F0"/>
  <note>
eth
</note>
  <outline>
    <contour>
      <point x="489" y="-16" type="curve" smooth="yes"/>
      <point x="638" y="-16"/>
      <point x="758" y="40"/>
      <point x="835" y="138" type="curve" smooth="yes"/>
      <point x="896" y="216"/>
      <point x="929" y="320"/>
      <point x="929" y="444" type="curve" smooth="yes"/>
      <point x="928" y="659"/>
      <point x="894" y="806"/>
      <point x="838" y="938" type="curve" smooth="yes"/>
      <point x="735" y="1177"/>
      <point x="459" y="1427"/>
      <point x="146" y="1487" type="curve"/>
      <point x="144" y="1483" type="line"/>
      <point x="509" y="1392"/>
      <point x="807" y="1065"/>
      <point x="821" y="690" type="curve"/>
      <point x="870" y="687" type="line"/>
      <point x="809" y="825"/>
      <point x="674" y="930"/>
      <point x="489" y="930" type="curve" smooth="yes"/>
      <point x="365" y="930"/>
      <point x="260" y="880"/>
      <point x="198" y="815" type="curve" smooth="yes"/>
      <point x="106" y="719"/>
      <point x="51" y="598"/>
      <point x="51" y="444" type="curve" smooth="yes"/>
      <point x="51" y="296"/>
      <point x="103" y="185"/>
      <point x="192" y="94" type="curve" smooth="yes"/>
      <point x="258" y="26"/>
      <point x="369" y="-16"/>
    </contour>
    <contour>
      <point x="489" y="-3" type="curve" smooth="yes"/>
      <point x="270" y="-3"/>
      <point x="130" y="176"/>
      <point x="130" y="454" type="curve" smooth="yes"/>
      <point x="130" y="731"/>
      <point x="273" y="917"/>
      <point x="489" y="917" type="curve" smooth="yes"/>
      <point x="702" y="917"/>
      <point x="852" y="725"/>
      <point x="852" y="444" type="curve" smooth="yes"/>
      <point x="852" y="171"/>
      <point x="708" y="-3"/>
    </contour>
    <contour>
      <point x="246" y="1099" type="line"/>
      <point x="281" y="1099" type="line"/>
      <point x="727" y="1531" type="line"/>
      <point x="692" y="1531" type="line"/>
    </contour>
  </outline>
</glyph>
<glyph name="divide" format="2">
  <advance width="936"/>
  <unicode hex="00F7"/>
  <note>
divide
</note>
  <outline>
    <contour>
      <point x="87" y="653" type="line"/>
      <point x="863" y="653" type="line"/>
      <point x="863" y="683" type="line"/>
      <point x="87" y="683" type="line"/>
    </contour>
    <contour>
      <point x="475" y="356" type="curve" smooth="yes"/>
      <point x="507" y="356"/>
      <point x="531" y="380"/>
      <point x="531" y="413" type="curve" smooth="yes"/>
      <point x="531" y="446"/>
      <point x="506" y="468"/>
      <point x="475" y="468" type="curve" smooth="yes"/>
      <point x="444" y="468"/>
      <point x="419" y="446"/>
      <point x="419" y="413" type="curve" smooth="yes"/>
      <point x="419" y="380"/>
      <point x="443" y="356"/>
    </contour>
    <contour>
      <point x="475" y="868" type="curve" smooth="yes"/>
      <point x="507" y="868"/>
      <point x="531" y="892"/>
      <point x="531" y="925" type="curve" smooth="yes"/>
      <point x="531" y="958"/>
      <point x="506" y="980"/>
      <point x="475" y="980" type="curve" smooth="yes"/>
      <point x="444" y="980"/>
      <point x="419" y="958"/>
      <point x="419" y="925" type="curve" smooth="yes"/>
      <point x="419" y="892"/>
      <point x="443" y="868"/>
    </contour>
  </outline>
</glyph>
<glyph name="thorn" format="2">
  <advance width="1111"/>
  <unicode hex="00FE"/>
  <note>
thorn
</note>
  <anchor x="535" y="0" name="bottom"/>
  <anchor x="535" y="914" name="top"/>
  <outline>
    <contour>
      <point x="154" y="-600" type="line"/>
      <point x="226" y="-600" type="line"/>
      <point x="226" y="221" type="line"/>
      <point x="217" y="210" type="line"/>
      <point x="291" y="66"/>
      <point x="432" y="-24"/>
      <point x="608" y="-24" type="curve" smooth="yes"/>
      <point x="872" y="-24"/>
      <point x="1059" y="179"/>
      <point x="1059" y="460" type="curve" smooth="yes"/>
      <point x="1059" y="742"/>
      <point x="871" y="938"/>
      <point x="608" y="938" type="curve" smooth="yes"/>
      <point x="432" y="938"/>
      <point x="291" y="851"/>
      <point x="217" y="708" type="curve"/>
      <point x="226" y="697" type="line"/>
      <point x="226" y="1514" type="line"/>
      <point x="154" y="1514" type="line"/>
    </contour>
    <contour>
      <point x="608" y="-11" type="curve" smooth="yes"/>
      <point x="392" y="-11"/>
      <point x="234" y="173"/>
      <point x="234" y="451" type="curve" smooth="yes"/>
      <point x="234" y="721"/>
      <point x="381" y="925"/>
      <point x="608" y="925" type="curve" smooth="yes"/>
      <point x="824" y="925"/>
      <point x="982" y="739"/>
      <point x="982" y="461" type="curve" smooth="yes"/>
      <point x="982" y="191"/>
      <point x="833" y="-11"/>
    </contour>
  </outline>
</glyph>
<glyph name="eng" format="2">
  <advance width="1018"/>
  <unicode hex="014B"/>
  <outline>
    <contour>
      <point x="747" y="-477" type="curve" smooth="yes"/>
      <point x="937" y="-477"/>
      <point x="915" y="-330"/>
      <point x="915" y="17" type="curve" smooth="yes"/>
      <point x="915" y="536" type="line" smooth="yes"/>
      <point x="915" y="810"/>
      <point x="787" y="938"/>
      <point x="583" y="938" type="curve" smooth="yes"/>
      <point x="395" y="938"/>
      <point x="229" y="830"/>
      <point x="196" y="661" type="curve"/>
      <point x="200" y="651" type="line"/>
      <point x="200" y="910" type="line"/>
      <point x="128" y="910" type="line"/>
      <point x="128" y="0" type="line"/>
      <point x="200" y="0" type="line"/>
      <point x="200" y="612" type="line" smooth="yes"/>
      <point x="200" y="776"/>
      <point x="364" y="926"/>
      <point x="573" y="926" type="curve" smooth="yes"/>
      <point x="757" y="926"/>
      <point x="841" y="810"/>
      <point x="841" y="539" type="curve" smooth="yes"/>
      <point x="841" y="17" type="line" smooth="yes"/>
      <point x="841" y="-376"/>
      <point x="839" y="-464"/>
      <point x="742" y="-464" type="curve" smooth="yes"/>
      <point x="686" y="-464"/>
      <point x="628" y="-435"/>
      <point x="628" y="-354" type="curve" smooth="yes"/>
      <point x="628" y="-330"/>
      <point x="633" y="-280"/>
      <point x="637" y="-260" type="curve"/>
      <point x="593" y="-260" type="line"/>
      <point x="577" y="-306"/>
      <point x="574" y="-335"/>
      <point x="574" y="-351" type="curve" smooth="yes"/>
      <point x="574" y="-420"/>
      <point x="629" y="-477"/>
    </contour>
  </outline>
</glyph>
<glyph name="OE" format="2">
  <advance width="2161"/>
  <unicode hex="0152"/>
  <note>
OE
</note>
  <anchor x="1071" y="0" name="bottom"/>
  <anchor x="1071" y="1430" name="top"/>
  <outline>
    <contour>
      <point x="738" y="-26" type="curve" smooth="yes"/>
      <point x="1117" y="-26"/>
      <point x="1387" y="307"/>
      <point x="1387" y="715" type="curve" smooth="yes"/>
      <point x="1387" y="1124"/>
      <point x="1116" y="1460"/>
      <point x="738" y="1460" type="curve" smooth="yes"/>
      <point x="361" y="1460"/>
      <point x="81" y="1125"/>
      <point x="81" y="715" type="curve" smooth="yes"/>
      <point x="81" y="307"/>
      <point x="359" y="-26"/>
    </contour>
    <contour>
      <point x="738" y="-12" type="curve" smooth="yes"/>
      <point x="430" y="-12"/>
      <point x="173" y="314"/>
      <point x="173" y="718" type="curve" smooth="yes"/>
      <point x="173" y="1127"/>
      <point x="438" y="1446"/>
      <point x="738" y="1446" type="curve" smooth="yes"/>
      <point x="1038" y="1446"/>
      <point x="1302" y="1127"/>
      <point x="1302" y="718" type="curve" smooth="yes"/>
      <point x="1302" y="314"/>
      <point x="1046" y="-12"/>
    </contour>
    <contour>
      <point x="1308" y="0" type="line"/>
      <point x="2093" y="0" type="line"/>
      <point x="2093" y="10" type="line"/>
      <point x="1366" y="10" type="line"/>
      <point x="1394" y="8" type="line"/>
      <point x="1394" y="735" type="line"/>
      <point x="1353" y="723" type="line"/>
      <point x="2093" y="723" type="line"/>
      <point x="2093" y="733" type="line"/>
      <point x="1366" y="733" type="line"/>
      <point x="1394" y="731" type="line"/>
      <point x="1394" y="1422" type="line"/>
      <point x="1364" y="1420" type="line"/>
      <point x="2093" y="1420" type="line"/>
      <point x="2093" y="1430" type="line"/>
      <point x="1308" y="1430" type="line"/>
    </contour>
  </outline>
</glyph>
<glyph name="Schwa" format="2">
  <advance width="1542"/>
  <unicode hex="018F"/>
  <anchor x="768" y="0" name="bottom"/>
  <anchor x="768" y="1430" name="top"/>
  <outline>
    <contour>
      <point x="758" y="-26" type="curve" smooth="yes"/>
      <point x="1168" y="-26"/>
      <point x="1461" y="307"/>
      <point x="1461" y="715" type="curve" smooth="yes"/>
      <point x="1461" y="1124"/>
      <point x="1167" y="1460"/>
      <point x="758" y="1460" type="curve" smooth="yes"/>
      <point x="516" y="1460"/>
      <point x="314" y="1342"/>
      <point x="190" y="1161" type="curve"/>
      <point x="275" y="1161" type="line"/>
      <point x="389" y="1336"/>
      <point x="567" y="1446"/>
      <point x="758" y="1446" type="curve" smooth="yes"/>
      <point x="1083" y="1446"/>
      <point x="1369" y="1127"/>
      <point x="1369" y="718" type="curve" smooth="yes"/>
      <point x="1369" y="314"/>
      <point x="1091" y="-12"/>
      <point x="758" y="-12" type="curve" smooth="yes"/>
      <point x="425" y="-12"/>
      <point x="147" y="314"/>
      <point x="147" y="718" type="curve"/>
      <point x="55" y="715" type="line"/>
      <point x="55" y="307"/>
      <point x="348" y="-26"/>
    </contour>
    <contour>
      <point x="105" y="706" type="line"/>
      <point x="1391" y="706" type="line"/>
      <point x="1391" y="716" type="line"/>
      <point x="105" y="716" type="line"/>
    </contour>
  </outline>
</glyph>
<glyph name="jdotless" format="2">
  <advance width="354"/>
  <unicode hex="0237"/>
  <anchor x="177" y="-526" name="bottom"/>
  <anchor x="177" y="914" name="top"/>
  <outline>
    <contour>
      <point x="47" y="-577" type="curve" smooth="yes"/>
      <point x="250" y="-577"/>
      <point x="213" y="-409"/>
      <point x="213" y="-9" type="curve" smooth="yes"/>
      <point x="213" y="910" type="line"/>
      <point x="141" y="910" type="line"/>
      <point x="141" y="-9" type="line" smooth="yes"/>
      <point x="141" y="-465"/>
      <point x="145" y="-564"/>
      <point x="42" y="-564" type="curve" smooth="yes"/>
      <point x="-14" y="-564"/>
      <point x="-72" y="-535"/>
      <point x="-72" y="-454" type="curve" smooth="yes"/>
      <point x="-72" y="-430"/>
      <point x="-67" y="-380"/>
      <point x="-63" y="-360" type="curve"/>
      <point x="-107" y="-360" type="line"/>
      <point x="-123" y="-406"/>
      <point x="-126" y="-435"/>
      <point x="-126" y="-451" type="curve" smooth="yes"/>
      <point x="-126" y="-520"/>
      <point x="-71" y="-577"/>
    </contour>
  </outline>
</glyph>
<glyph name="primemod" format="2">
  <advance width="102"/>
  <unicode hex="02B9"/>
  <outline>
    <contour>
      <point x="102" y="1331" type="curve"/>
      <point x="41" y="1331" type="line"/>
      <point x="11" y="1262"/>
      <point x="1" y="1115"/>
      <point x="0" y="1052" type="curve"/>
      <point x="13" y="1052" type="line"/>
      <point x="50" y="1142"/>
      <point x="79" y="1247"/>
    </contour>
  </outline>
</glyph>
<glyph name="circumflexcomb" format="2">
  <unicode hex="0302"/>
  <note>
circumflex
</note>
  <anchor x="221" y="914" name="_top"/>
  <anchor x="221" y="1331" name="top"/>
  <outline>
    <contour>
      <point x="-4" y="1061" type="line"/>
      <point x="10" y="1061" type="line"/>
      <point x="220" y="1291" type="line"/>
      <point x="430" y="1061" type="line"/>
      <point x="446" y="1061" type="line"/>
      <point x="244" y="1331" type="line"/>
      <point x="195" y="1331" type="line"/>
    </contour>
  </outline>
</glyph>
<glyph name="tildecomb" format="2">
  <unicode hex="0303"/>
  <note>
tilde
</note>
  <anchor x="356" y="914" name="_top"/>
  <anchor x="356" y="1290" name="top"/>
  <outline>
    <contour>
      <point x="461" y="1130" type="curve" smooth="yes"/>
      <point x="536" y="1130"/>
      <point x="574" y="1187"/>
      <point x="619" y="1253" type="curve"/>
      <point x="613" y="1259" type="line"/>
      <point x="572" y="1207"/>
      <point x="541" y="1161"/>
      <point x="457" y="1161" type="curve" smooth="yes"/>
      <point x="388" y="1161"/>
      <point x="344" y="1280"/>
      <point x="246" y="1280" type="curve" smooth="yes"/>
      <point x="177" y="1280"/>
      <point x="133" y="1223"/>
      <point x="92" y="1156" type="curve"/>
      <point x="99" y="1150" type="line"/>
      <point x="141" y="1203"/>
      <point x="166" y="1249"/>
      <point x="248" y="1249" type="curve" smooth="yes"/>
      <point x="323" y="1249"/>
      <point x="366" y="1130"/>
    </contour>
  </outline>
</glyph>
<glyph name="brevecomb" format="2">
  <unicode hex="0306"/>
  <note>
breve
</note>
  <anchor x="264" y="914" name="_top"/>
  <anchor x="264" y="1266" name="top"/>
  <outline>
    <contour>
      <point x="264" y="1086" type="curve" smooth="yes"/>
      <point x="367" y="1086"/>
      <point x="434" y="1147"/>
      <point x="463" y="1276" type="curve"/>
      <point x="450" y="1276" type="line"/>
      <point x="418" y="1173"/>
      <point x="367" y="1118"/>
      <point x="264" y="1118" type="curve" smooth="yes"/>
      <point x="161" y="1118"/>
      <point x="110" y="1173"/>
      <point x="78" y="1276" type="curve"/>
      <point x="65" y="1276" type="line"/>
      <point x="94" y="1147"/>
      <point x="161" y="1086"/>
    </contour>
  </outline>
</glyph>
<glyph name="hookabovecomb" format="2">
  <unicode hex="0309"/>
  <anchor x="133" y="914" name="_top"/>
  <anchor x="133" y="1353" name="top"/>
  <outline>
    <contour>
      <point x="82" y="1103" type="line"/>
      <point x="167" y="1109"/>
      <point x="261" y="1151"/>
      <point x="261" y="1246" type="curve" smooth="yes"/>
      <point x="261" y="1309"/>
      <point x="198" y="1353"/>
      <point x="120" y="1353" type="curve" smooth="yes"/>
      <point x="71" y="1353"/>
      <point x="27" y="1335"/>
      <point x="5" y="1306" type="curve"/>
      <point x="12" y="1296" type="line"/>
      <point x="44" y="1318"/>
      <point x="72" y="1336"/>
      <point x="120" y="1336" type="curve" smooth="yes"/>
      <point x="174" y="1336"/>
      <point x="217" y="1296"/>
      <point x="217" y="1246" type="curve" smooth="yes"/>
      <point x="217" y="1160"/>
      <point x="167" y="1132"/>
      <point x="82" y="1118" type="curve"/>
    </contour>
    <contour>
      <point x="82" y="1012" type="line"/>
      <point x="112" y="1012" type="line"/>
      <point x="112" y="1118" type="line"/>
      <point x="82" y="1118" type="line"/>
    </contour>
  </outline>
</glyph>
<glyph name="horncomb" format="2">
  <unicode hex="031B"/>
  <anchor x="187" y="1204" name="_topright"/>
  <anchor x="220" y="1221" name="topright"/>
  <outline>
    <contour>
      <point x="200" y="1251" type="curve"/>
      <point x="162" y="1251" type="line"/>
      <point x="162" y="1176"/>
      <point x="119" y="1111"/>
      <point x="37" y="1106" type="curve"/>
      <point x="37" y="1088" type="line"/>
      <point x="120" y="1086"/>
      <point x="200" y="1159"/>
    </contour>
  </outline>
</glyph>
<glyph name="strokeshortcomb" format="2">
  <unicode hex="0335"/>
  <anchor x="352" y="760" name="_center"/>
  <outline>
    <contour>
      <point x="49" y="755" type="line"/>
      <point x="655" y="755" type="line"/>
      <point x="655" y="765" type="line"/>
      <point x="49" y="765" type="line"/>
    </contour>
  </outline>
</glyph>
<glyph name="Dje-cy" format="2">
  <advance width="1402"/>
  <unicode hex="0402"/>
  <outline>
    <contour>
      <point x="847" y="-26" type="line"/>
      <point x="1135" y="-26"/>
      <point x="1289" y="133"/>
      <point x="1289" y="412" type="curve" smooth="yes"/>
      <point x="1289" y="666"/>
      <point x="1175" y="832"/>
      <point x="917" y="832" type="curve" smooth="yes"/>
      <point x="731" y="832"/>
      <point x="555" y="746"/>
      <point x="507" y="547" type="curve"/>
      <point x="507" y="1430" type="line"/>
      <point x="421" y="1430" type="line"/>
      <point x="421" y="0" type="line"/>
      <point x="507" y="0" type="line"/>
      <point x="507" y="427" type="line" smooth="yes"/>
      <point x="507" y="662"/>
      <point x="674" y="816"/>
      <point x="903" y="816" type="curve" smooth="yes"/>
      <point x="1110" y="816"/>
      <point x="1203" y="668"/>
      <point x="1203" y="406" type="curve" smooth="yes"/>
      <point x="1203" y="131"/>
      <point x="1100" y="-16"/>
      <point x="851" y="-16" type="curve"/>
    </contour>
    <contour>
      <point x="67" y="1420" type="line"/>
      <point x="861" y="1420" type="line"/>
      <point x="861" y="1430" type="line"/>
      <point x="67" y="1430" type="line"/>
    </contour>
  </outline>
</glyph>
<glyph name="Lje-cy" format="2">
  <advance width="1978"/>
  <unicode hex="0409"/>
  <outline>
    <contour>
      <point x="1090" y="10" type="line"/>
      <point x="1043" y="0" type="line"/>
      <point x="1441" y="0" type="line" smooth="yes"/>
      <point x="1561" y="0"/>
      <point x="1673" y="45"/>
      <point x="1755" y="122" type="curve" smooth="yes"/>
      <point x="1837" y="199"/>
      <point x="1889" y="306"/>
      <point x="1889" y="430" type="curve" smooth="yes"/>
      <point x="1889" y="553"/>
      <point x="1838" y="660"/>
      <point x="1758" y="735" type="curve" smooth="yes"/>
      <point x="1678" y="810"/>
      <point x="1571" y="854"/>
      <point x="1457" y="854" type="curve" smooth="yes"/>
      <point x="1100" y="854" type="line"/>
      <point x="1100" y="844" type="line"/>
      <point x="1441" y="844" type="line" smooth="yes"/>
      <point x="1637" y="844"/>
      <point x="1821" y="678"/>
      <point x="1821" y="431" type="curve" smooth="yes"/>
      <point x="1821" y="191"/>
      <point x="1646" y="10"/>
      <point x="1441" y="10" type="curve" smooth="yes"/>
    </contour>
    <contour>
      <point x="479" y="1430" type="line"/>
      <point x="467" y="1039"/>
      <point x="447" y="826"/>
      <point x="395" y="585" type="curve" smooth="yes"/>
      <point x="347" y="361"/>
      <point x="259" y="60"/>
      <point x="96" y="60" type="curve" smooth="yes"/>
      <point x="32" y="60" type="line"/>
      <point x="32" y="0" type="line"/>
      <point x="88" y="0" type="line" smooth="yes"/>
      <point x="228" y="0"/>
      <point x="334" y="214"/>
      <point x="415" y="625" type="curve" smooth="yes"/>
      <point x="472" y="913"/>
      <point x="480" y="1111"/>
      <point x="492" y="1426" type="curve"/>
      <point x="484" y="1420" type="line"/>
      <point x="1082" y="1420" type="line"/>
      <point x="1043" y="1427" type="line"/>
      <point x="1043" y="0" type="line"/>
      <point x="1129" y="0" type="line"/>
      <point x="1129" y="1430" type="line"/>
    </contour>
  </outline>
</glyph>
<glyph name="De-cy" format="2">
  <advance width="1383"/>
  <unicode hex="0414"/>
  <outline>
    <contour>
      <point x="85" y="0" type="line"/>
      <point x="1300" y="0" type="line"/>
      <point x="1300" y="10" type="line"/>
      <point x="1107" y="10" type="line"/>
      <point x="1156" y="7" type="line"/>
      <point x="1156" y="1430" type="line"/>
      <point x="510" y="1430" type="line"/>
      <point x="510" y="1420" type="line"/>
      <point x="1093" y="1420" type="line"/>
      <point x="1070" y="1426" type="line"/>
      <point x="1070" y="7" type="line"/>
      <point x="1093" y="10" type="line"/>
      <point x="85" y="10" type="line"/>
    </contour>
    <contour>
      <point x="270" y="3" type="line"/>
      <point x="505" y="471"/>
      <point x="579" y="927"/>
      <point x="578" y="1421" type="curve"/>
      <point x="510" y="1424" type="line"/>
      <point x="511" y="931"/>
      <point x="429" y="473"/>
      <point x="195" y="6" type="curve"/>
    </contour>
    <component base="_cyrillicdescender01.case" xOffset="1055"/>
    <component base="_cyrillicdescender01.case" xScale="-1" xOffset="328"/>
  </outline>
</glyph>
<glyph name="Ka-cy" format="2">
  <advance width="1067"/>
  <unicode hex="041A"/>
  <anchor x="1107" y="0" name="bottomright"/>
  <anchor x="534" y="1430" name="top"/>
  <outline>
    <contour>
      <point x="175" y="0" type="line"/>
      <point x="261" y="0" type="line"/>
      <point x="261" y="1430" type="line"/>
      <point x="175" y="1430" type="line"/>
    </contour>
    <contour>
      <point x="232" y="684" type="line"/>
      <point x="986" y="1430" type="line"/>
      <point x="965" y="1430" type="line"/>
      <point x="242" y="715" type="line"/>
    </contour>
    <contour>
      <point x="926" y="0" type="line"/>
      <point x="1026" y="0" type="line"/>
      <point x="294" y="759" type="line"/>
      <point x="247" y="706" type="line"/>
    </contour>
  </outline>
</glyph>
<glyph name="El-cy" format="2">
  <advance width="1304"/>
  <unicode hex="041B"/>
  <outline>
    <contour>
      <point x="479" y="1430" type="line"/>
      <point x="467" y="1039"/>
      <point x="447" y="826"/>
      <point x="395" y="585" type="curve" smooth="yes"/>
      <point x="347" y="361"/>
      <point x="259" y="60"/>
      <point x="96" y="60" type="curve" smooth="yes"/>
      <point x="32" y="60" type="line"/>
      <point x="32" y="0" type="line"/>
      <point x="88" y="0" type="line" smooth="yes"/>
      <point x="228" y="0"/>
      <point x="334" y="214"/>
      <point x="415" y="625" type="curve" smooth="yes"/>
      <point x="472" y="913"/>
      <point x="480" y="1111"/>
      <point x="492" y="1426" type="curve"/>
      <point x="487" y="1420" type="line"/>
      <point x="1082" y="1420" type="line"/>
      <point x="1043" y="1426" type="line"/>
      <point x="1043" y="0" type="line"/>
      <point x="1129" y="0" type="line"/>
      <point x="1129" y="1430" type="line"/>
    </contour>
  </outline>
</glyph>
<glyph name="Ef-cy" format="2">
  <advance width="1176"/>
  <unicode hex="0424"/>
  <outline>
    <contour>
      <point x="587" y="213" type="curve"/>
      <point x="587" y="222" type="line"/>
      <point x="323" y="222"/>
      <point x="157" y="411"/>
      <point x="157" y="712" type="curve" smooth="yes"/>
      <point x="157" y="1017"/>
      <point x="323" y="1208"/>
      <point x="587" y="1208" type="curve"/>
      <point x="587" y="1217" type="line"/>
      <point x="269" y="1217"/>
      <point x="70" y="1019"/>
      <point x="70" y="703" type="curve" smooth="yes"/>
      <point x="70" y="402"/>
      <point x="269" y="213"/>
    </contour>
    <contour>
      <point x="546" y="0" type="line"/>
      <point x="632" y="0" type="line"/>
      <point x="632" y="1430" type="line"/>
      <point x="546" y="1430" type="line"/>
    </contour>
    <contour>
      <point x="587" y="213" type="line"/>
      <point x="906" y="213"/>
      <point x="1106" y="402"/>
      <point x="1106" y="703" type="curve" smooth="yes"/>
      <point x="1106" y="1019"/>
      <point x="906" y="1217"/>
      <point x="587" y="1217" type="curve"/>
      <point x="587" y="1208" type="line"/>
      <point x="851" y="1208"/>
      <point x="1017" y="1013"/>
      <point x="1017" y="703" type="curve" smooth="yes"/>
      <point x="1017" y="408"/>
      <point x="851" y="222"/>
      <point x="587" y="222" type="curve"/>
    </contour>
  </outline>
</glyph>
<glyph name="Che-cy" format="2">
  <advance width="1135"/>
  <unicode hex="0427"/>
  <anchor x="1051" y="0" name="bottomright"/>
  <anchor x="517" y="1430" name="top"/>
  <outline>
    <contour>
      <point x="874" y="0" type="line"/>
      <point x="960" y="0" type="line"/>
      <point x="960" y="1430" type="line"/>
      <point x="874" y="1430" type="line"/>
      <point x="874" y="1003" type="line" smooth="yes"/>
      <point x="874" y="768"/>
      <point x="707" y="614"/>
      <point x="478" y="614" type="curve" smooth="yes"/>
      <point x="271" y="614"/>
      <point x="178" y="739"/>
      <point x="178" y="994" type="curve" smooth="yes"/>
      <point x="178" y="1430" type="line"/>
      <point x="92" y="1430" type="line"/>
      <point x="92" y="988" type="line" smooth="yes"/>
      <point x="92" y="726"/>
      <point x="220" y="598"/>
      <point x="464" y="598" type="curve" smooth="yes"/>
      <point x="698" y="598"/>
      <point x="880" y="716"/>
      <point x="888" y="994" type="curve"/>
      <point x="874" y="944" type="line"/>
    </contour>
  </outline>
</glyph>
<glyph name="de-cy" format="2">
  <advance width="1006"/>
  <unicode hex="0434"/>
  <anchor x="953" y="0" name="_bottomright"/>
  <outline>
    <contour>
      <point x="62" y="0" type="line"/>
      <point x="947" y="0" type="line"/>
      <point x="947" y="10" type="line"/>
      <point x="781" y="10" type="line"/>
      <point x="832" y="6" type="line"/>
      <point x="832" y="910" type="line"/>
      <point x="378" y="910" type="line"/>
      <point x="378" y="900" type="line"/>
      <point x="802" y="900" type="line"/>
      <point x="760" y="905" type="line"/>
      <point x="760" y="6" type="line"/>
      <point x="802" y="10" type="line"/>
      <point x="62" y="10" type="line"/>
    </contour>
    <contour>
      <point x="204" y="6" type="line"/>
      <point x="371" y="307"/>
      <point x="432" y="582"/>
      <point x="432" y="902" type="curve"/>
      <point x="378" y="903" type="line"/>
      <point x="377" y="593"/>
      <point x="316" y="314"/>
      <point x="143" y="7" type="curve"/>
    </contour>
    <component base="_cyrillicdescender02" xOffset="769"/>
    <component base="_cyrillicdescender02" xScale="-1" xOffset="244"/>
  </outline>
</glyph>
<glyph name="ze-cy" format="2">
  <advance width="749"/>
  <unicode hex="0437"/>
  <anchor x="375" y="0" name="bottom"/>
  <anchor x="375" y="910" name="top"/>
  <outline>
    <contour>
      <point x="337" y="-20" type="curve" smooth="yes"/>
      <point x="540" y="-20"/>
      <point x="686" y="53"/>
      <point x="686" y="239" type="curve" smooth="yes"/>
      <point x="686" y="389"/>
      <point x="614" y="481"/>
      <point x="409" y="483" type="curve"/>
      <point x="400" y="476" type="line"/>
      <point x="575" y="466"/>
      <point x="642" y="558"/>
      <point x="642" y="697" type="curve" smooth="yes"/>
      <point x="642" y="854"/>
      <point x="536" y="922"/>
      <point x="362" y="922" type="curve" smooth="yes"/>
      <point x="212" y="922"/>
      <point x="131" y="871"/>
      <point x="100" y="780" type="curve"/>
      <point x="145" y="746" type="line"/>
      <point x="150" y="847"/>
      <point x="223" y="910"/>
      <point x="359" y="910" type="curve" smooth="yes"/>
      <point x="492" y="910"/>
      <point x="569" y="851"/>
      <point x="569" y="699" type="curve" smooth="yes"/>
      <point x="569" y="539"/>
      <point x="484" y="485"/>
      <point x="338" y="485" type="curve" smooth="yes"/>
      <point x="287" y="485" type="line"/>
      <point x="287" y="475" type="line"/>
      <point x="341" y="475" type="line" smooth="yes"/>
      <point x="510" y="475"/>
      <point x="608" y="423"/>
      <point x="608" y="239" type="curve" smooth="yes"/>
      <point x="608" y="69"/>
      <point x="500" y="-8"/>
      <point x="341" y="-8" type="curve" smooth="yes"/>
      <point x="169" y="-8"/>
      <point x="86" y="83"/>
      <point x="72" y="186" type="curve"/>
      <point x="13" y="171" type="line"/>
      <point x="39" y="67"/>
      <point x="116" y="-20"/>
    </contour>
  </outline>
</glyph>
<glyph name="ii-cy" format="2">
  <advance width="973"/>
  <unicode hex="0438"/>
  <anchor x="953" y="0" name="bottomright"/>
  <anchor x="487" y="910" name="top"/>
  <outline>
    <contour>
      <point x="129" y="-14" type="line"/>
      <point x="138" y="-14" type="line"/>
      <point x="838" y="807" type="line"/>
      <point x="829" y="870" type="line"/>
      <point x="829" y="0" type="line"/>
      <point x="844" y="0" type="line"/>
      <point x="844" y="917" type="line"/>
      <point x="837" y="917" type="line"/>
      <point x="137" y="97" type="line"/>
      <point x="144" y="66" type="line"/>
      <point x="144" y="903" type="line"/>
      <point x="129" y="903" type="line"/>
    </contour>
  </outline>
</glyph>
<glyph name="ka-cy" format="2">
  <advance width="766"/>
  <unicode hex="043A"/>
  <anchor x="746" y="0" name="bottomright"/>
  <anchor x="383" y="910" name="top"/>
  <outline>
    <contour>
      <point x="129" y="0" type="line"/>
      <point x="211" y="0" type="line"/>
      <point x="211" y="910" type="line"/>
      <point x="129" y="910" type="line"/>
    </contour>
    <contour>
      <point x="200" y="437" type="line"/>
      <point x="720" y="910" type="line"/>
      <point x="691" y="910" type="line"/>
      <point x="195" y="459" type="line"/>
    </contour>
    <contour>
      <point x="653" y="0" type="line"/>
      <point x="749" y="0" type="line"/>
      <point x="245" y="485" type="line"/>
      <point x="182" y="457" type="line"/>
    </contour>
  </outline>
</glyph>
<glyph name="en-cy" format="2">
  <advance width="996"/>
  <unicode hex="043D"/>
  <anchor x="856" y="0" name="bottomright"/>
  <outline>
    <contour>
      <point x="129" y="0" type="line"/>
      <point x="201" y="0" type="line"/>
      <point x="201" y="470" type="line"/>
      <point x="174" y="459" type="line"/>
      <point x="822" y="459" type="line"/>
      <point x="795" y="470" type="line"/>
      <point x="795" y="0" type="line"/>
      <point x="867" y="0" type="line"/>
      <point x="867" y="910" type="line"/>
      <point x="795" y="910" type="line"/>
      <point x="795" y="458" type="line"/>
      <point x="822" y="469" type="line"/>
      <point x="174" y="469" type="line"/>
      <point x="201" y="458" type="line"/>
      <point x="201" y="910" type="line"/>
      <point x="129" y="910" type="line"/>
    </contour>
  </outline>
</glyph>
<glyph name="te-cy" format="2">
  <advance width="750"/>
  <unicode hex="0442"/>
  <anchor x="730" y="0" name="bottomright"/>
  <outline>
    <contour>
      <point x="334" y="0" type="line"/>
      <point x="416" y="0" type="line"/>
      <point x="416" y="907" type="line"/>
      <point x="364" y="900" type="line"/>
      <point x="750" y="900" type="line"/>
      <point x="750" y="910" type="line"/>
      <point x="0" y="910" type="line"/>
      <point x="0" y="900" type="line"/>
      <point x="387" y="900" type="line"/>
      <point x="334" y="907" type="line"/>
    </contour>
  </outline>
</glyph>
<glyph name="ef-cy" format="2">
  <advance width="1259"/>
  <unicode hex="0444"/>
  <outline>
    <contour>
      <point x="819" y="-14" type="curve" smooth="yes"/>
      <point x="1062" y="-14"/>
      <point x="1195" y="148"/>
      <point x="1195" y="456" type="curve" smooth="yes"/>
      <point x="1195" y="775"/>
      <point x="1052" y="932"/>
      <point x="819" y="932" type="curve" smooth="yes"/>
      <point x="777" y="932"/>
      <point x="717" y="927"/>
      <point x="635" y="873" type="curve"/>
      <point x="637" y="865" type="line"/>
      <point x="694" y="901"/>
      <point x="756" y="919"/>
      <point x="814" y="919" type="curve" smooth="yes"/>
      <point x="999" y="919"/>
      <point x="1120" y="730"/>
      <point x="1120" y="459" type="curve" smooth="yes"/>
      <point x="1120" y="184"/>
      <point x="998" y="-1"/>
      <point x="814" y="-1" type="curve" smooth="yes"/>
      <point x="757" y="-1"/>
      <point x="694" y="17"/>
      <point x="637" y="53" type="curve"/>
      <point x="635" y="45" type="line"/>
      <point x="716" y="-9"/>
      <point x="776" y="-14"/>
    </contour>
    <contour>
      <point x="440" y="-14" type="curve" smooth="yes"/>
      <point x="483" y="-14"/>
      <point x="543" y="-9"/>
      <point x="624" y="45" type="curve"/>
      <point x="622" y="53" type="line"/>
      <point x="565" y="17"/>
      <point x="503" y="-1"/>
      <point x="445" y="-1" type="curve" smooth="yes"/>
      <point x="260" y="-1"/>
      <point x="139" y="188"/>
      <point x="139" y="459" type="curve" smooth="yes"/>
      <point x="139" y="735"/>
      <point x="261" y="919"/>
      <point x="445" y="919" type="curve" smooth="yes"/>
      <point x="502" y="919"/>
      <point x="566" y="901"/>
      <point x="622" y="865" type="curve"/>
      <point x="624" y="873" type="line"/>
      <point x="542" y="927"/>
      <point x="481" y="932"/>
      <point x="440" y="932" type="curve" smooth="yes"/>
      <point x="206" y="932"/>
      <point x="64" y="775"/>
      <point x="64" y="456" type="curve" smooth="yes"/>
      <point x="64" y="148"/>
      <point x="197" y="-14"/>
    </contour>
    <contour>
      <point x="593" y="-526" type="line"/>
      <point x="665" y="-526" type="line"/>
      <point x="665" y="1430" type="line"/>
      <point x="593" y="1430" type="line"/>
    </contour>
  </outline>
</glyph>
<glyph name="che-cy" format="2">
  <advance width="805"/>
  <unicode hex="0447"/>
  <anchor x="685" y="0" name="bottomright"/>
  <anchor x="403" y="910" name="top"/>
  <outline>
    <contour>
      <point x="605" y="0" type="line"/>
      <point x="678" y="0" type="line"/>
      <point x="678" y="903" type="line"/>
      <point x="606" y="903" type="line"/>
      <point x="606" y="591" type="line" smooth="yes"/>
      <point x="606" y="432"/>
      <point x="483" y="352"/>
      <point x="342" y="352" type="curve" smooth="yes"/>
      <point x="189" y="352"/>
      <point x="131" y="450"/>
      <point x="131" y="598" type="curve" smooth="yes"/>
      <point x="131" y="903" type="line"/>
      <point x="59" y="903" type="line"/>
      <point x="59" y="582" type="line" smooth="yes"/>
      <point x="59" y="418"/>
      <point x="153" y="337"/>
      <point x="323" y="337" type="curve" smooth="yes"/>
      <point x="484" y="337"/>
      <point x="611" y="408"/>
      <point x="615" y="580" type="curve"/>
      <point x="606" y="592" type="line"/>
    </contour>
  </outline>
</glyph>
<glyph name="ia-cy" format="2">
  <advance width="806"/>
  <unicode hex="044F"/>
  <anchor x="403" y="910" name="top"/>
  <outline>
    <contour>
      <point x="603" y="0" type="line"/>
      <point x="676" y="0" type="line"/>
      <point x="678" y="910" type="line"/>
      <point x="409" y="910" type="line" smooth="yes"/>
      <point x="238" y="910"/>
      <point x="84" y="823"/>
      <point x="82" y="653" type="curve" smooth="yes"/>
      <point x="80" y="496"/>
      <point x="209" y="413"/>
      <point x="392" y="405" type="curve"/>
      <point x="433" y="405" type="line"/>
      <point x="640" y="405" type="line"/>
      <point x="605" y="407" type="line"/>
    </contour>
    <contour>
      <point x="605" y="411" type="line"/>
      <point x="643" y="415" type="line"/>
      <point x="412" y="415" type="line" smooth="yes"/>
      <point x="275" y="415"/>
      <point x="158" y="490"/>
      <point x="158" y="643" type="curve" smooth="yes"/>
      <point x="158" y="792"/>
      <point x="268" y="897"/>
      <point x="408" y="897" type="curve" smooth="yes"/>
      <point x="641" y="897" type="line"/>
      <point x="605" y="900" type="line"/>
    </contour>
    <contour>
      <point x="57" y="0" type="curve"/>
      <point x="109" y="0" type="line"/>
      <point x="121" y="35"/>
      <point x="142" y="101"/>
      <point x="159" y="144" type="curve" smooth="yes"/>
      <point x="194" y="233"/>
      <point x="240" y="295"/>
      <point x="275" y="332" type="curve" smooth="yes"/>
      <point x="351" y="412"/>
      <point x="398" y="400"/>
      <point x="441" y="406" type="curve"/>
      <point x="394" y="411" type="line"/>
      <point x="312" y="415"/>
      <point x="257" y="356"/>
      <point x="225" y="328" type="curve" smooth="yes"/>
      <point x="173" y="282"/>
      <point x="146" y="239"/>
      <point x="119" y="169" type="curve" smooth="yes"/>
      <point x="103" y="128"/>
      <point x="75" y="49"/>
    </contour>
  </outline>
</glyph>
<glyph name="dje-cy" format="2">
  <advance width="1043"/>
  <unicode hex="0452"/>
  <outline>
    <contour>
      <point x="141" y="0" type="line"/>
      <point x="213" y="0" type="line"/>
      <point x="213" y="612" type="line" smooth="yes"/>
      <point x="213" y="776"/>
      <point x="377" y="926"/>
      <point x="586" y="926" type="curve" smooth="yes"/>
      <point x="770" y="926"/>
      <point x="854" y="810"/>
      <point x="854" y="539" type="curve" smooth="yes"/>
      <point x="854" y="0" type="line"/>
      <point x="926" y="0" type="line"/>
      <point x="926" y="536" type="line" smooth="yes"/>
      <point x="926" y="810"/>
      <point x="800" y="938"/>
      <point x="596" y="938" type="curve" smooth="yes"/>
      <point x="399" y="938"/>
      <point x="226" y="819"/>
      <point x="205" y="635" type="curve"/>
      <point x="213" y="652" type="line"/>
      <point x="213" y="1514" type="line"/>
      <point x="141" y="1514" type="line"/>
    </contour>
    <contour>
      <point x="18" y="1245" type="line"/>
      <point x="338" y="1245" type="line"/>
      <point x="338" y="1255" type="line"/>
      <point x="18" y="1255" type="line"/>
    </contour>
    <contour>
      <point x="760" y="-577" type="curve" smooth="yes"/>
      <point x="963" y="-577"/>
      <point x="926" y="-409"/>
      <point x="926" y="-9" type="curve" smooth="yes"/>
      <point x="926" y="410" type="line"/>
      <point x="854" y="410" type="line"/>
      <point x="854" y="-9" type="line" smooth="yes"/>
      <point x="854" y="-465"/>
      <point x="858" y="-564"/>
      <point x="755" y="-564" type="curve" smooth="yes"/>
      <point x="699" y="-564"/>
      <point x="641" y="-535"/>
      <point x="641" y="-454" type="curve" smooth="yes"/>
      <point x="641" y="-430"/>
      <point x="646" y="-380"/>
      <point x="650" y="-360" type="curve"/>
      <point x="606" y="-360" type="line"/>
      <point x="590" y="-406"/>
      <point x="587" y="-435"/>
      <point x="587" y="-451" type="curve" smooth="yes"/>
      <point x="587" y="-520"/>
      <point x="642" y="-577"/>
    </contour>
  </outline>
</glyph>
<glyph name="yat-cy" format="2">
  <advance width="757"/>
  <unicode hex="0463"/>
  <anchor x="177" y="1217" name="center"/>
  <outline>
    <contour>
      <point x="141" y="0" type="line"/>
      <point x="402" y="0" type="line" smooth="yes"/>
      <point x="581" y="0"/>
      <point x="731" y="102"/>
      <point x="731" y="267" type="curve" smooth="yes"/>
      <point x="731" y="430"/>
      <point x="592" y="538"/>
      <point x="413" y="538" type="curve" smooth="yes"/>
      <point x="168" y="538" type="line"/>
      <point x="213" y="534" type="line"/>
      <point x="213" y="1514" type="line"/>
      <point x="141" y="1514" type="line"/>
    </contour>
    <contour>
      <point x="213" y="6" type="line"/>
      <point x="213" y="533" type="line"/>
      <point x="168" y="528" type="line"/>
      <point x="398" y="528" type="line" smooth="yes"/>
      <point x="536" y="528"/>
      <point x="653" y="427"/>
      <point x="653" y="270" type="curve" smooth="yes"/>
      <point x="653" y="118"/>
      <point x="540" y="10"/>
      <point x="397" y="10" type="curve" smooth="yes"/>
      <point x="162" y="10" type="line"/>
    </contour>
    <component base="_cyrillic_bar" xOffset="16" yOffset="727"/>
  </outline>
</glyph>
<glyph name="Izhitsa-cy" format="2">
  <advance width="1514"/>
  <unicode hex="0474"/>
  <anchor x="757" y="1430" name="top"/>
  <outline>
    <contour>
      <point x="639" y="-41" type="line"/>
      <point x="1085" y="1085" type="line" smooth="yes"/>
      <point x="1200" y="1376"/>
      <point x="1258" y="1448"/>
      <point x="1330" y="1448" type="curve" smooth="yes"/>
      <point x="1397" y="1448"/>
      <point x="1416" y="1389"/>
      <point x="1416" y="1328" type="curve" smooth="yes"/>
      <point x="1416" y="1288"/>
      <point x="1408" y="1263"/>
      <point x="1401" y="1244" type="curve"/>
      <point x="1461" y="1244" type="line"/>
      <point x="1468" y="1287"/>
      <point x="1471" y="1324"/>
      <point x="1471" y="1341" type="curve" smooth="yes"/>
      <point x="1471" y="1425"/>
      <point x="1398" y="1461"/>
      <point x="1333" y="1461" type="curve" smooth="yes"/>
      <point x="1212" y="1461"/>
      <point x="1173" y="1335"/>
      <point x="1080" y="1100" type="curve" smooth="yes"/>
      <point x="656" y="30" type="line"/>
      <point x="673" y="57" type="line"/>
      <point x="121" y="1430" type="line"/>
      <point x="43" y="1429" type="line"/>
    </contour>
  </outline>
</glyph>
<glyph name="izhitsa-cy" format="2">
  <advance width="1121"/>
  <unicode hex="0475"/>
  <anchor x="561" y="910" name="top"/>
  <outline>
    <contour>
      <point x="457" y="-16" type="line"/>
      <point x="464" y="-16" type="line"/>
      <point x="751" y="596" type="line" smooth="yes"/>
      <point x="872" y="855"/>
      <point x="898" y="926"/>
      <point x="999" y="926" type="curve"/>
      <point x="1037" y="917"/>
      <point x="1067" y="898"/>
      <point x="1082" y="859" type="curve"/>
      <point x="1122" y="885" type="line"/>
      <point x="1099" y="921"/>
      <point x="1043" y="939"/>
      <point x="992" y="939" type="curve" smooth="yes"/>
      <point x="853" y="939"/>
      <point x="836" y="806"/>
      <point x="722" y="563" type="curve" smooth="yes"/>
      <point x="476" y="37" type="line"/>
      <point x="497" y="61" type="line"/>
      <point x="90" y="910" type="line"/>
      <point x="12" y="910" type="line"/>
    </contour>
  </outline>
</glyph>
<glyph name="emdash" format="2">
  <advance width="1894"/>
  <unicode hex="2014"/>
  <note>
emdash
</note>
  <outline>
    <contour>
      <point x="70" y="415" type="line"/>
      <point x="1810" y="415" type="line"/>
      <point x="1824" y="475" type="line"/>
      <point x="84" y="475" type="line"/>
    </contour>
  </outline>
</glyph>
<glyph name="dagger" format="2">
  <advance width="830"/>
  <unicode hex="2020"/>
  <note>
dagger
</note>
  <outline>
    <contour>
      <point x="415" y="-300" type="curve" smooth="yes"/>
      <point x="426" y="-300"/>
      <point x="435" y="-268"/>
      <point x="435" y="-224" type="curve" smooth="yes"/>
      <point x="435" y="754" type="line" smooth="yes"/>
      <point x="435" y="860"/>
      <point x="423" y="1004"/>
      <point x="416" y="996" type="curve" smooth="yes"/>
      <point x="407" y="988"/>
      <point x="540" y="976"/>
      <point x="689" y="976" type="curve" smooth="yes"/>
      <point x="733" y="976"/>
      <point x="765" y="985"/>
      <point x="765" y="996" type="curve" smooth="yes"/>
      <point x="765" y="1007"/>
      <point x="733" y="1016"/>
      <point x="689" y="1016" type="curve" smooth="yes"/>
      <point x="529" y="1016"/>
      <point x="405" y="1007"/>
      <point x="416" y="997" type="curve" smooth="yes"/>
      <point x="426" y="987"/>
      <point x="435" y="1124"/>
      <point x="435" y="1263" type="curve" smooth="yes"/>
      <point x="435" y="1324"/>
      <point x="429" y="1364"/>
      <point x="415" y="1364" type="curve" smooth="yes"/>
      <point x="401" y="1364"/>
      <point x="395" y="1324"/>
      <point x="395" y="1263" type="curve" smooth="yes"/>
      <point x="395" y="1124"/>
      <point x="404" y="987"/>
      <point x="414" y="997" type="curve" smooth="yes"/>
      <point x="425" y="1007"/>
      <point x="301" y="1016"/>
      <point x="141" y="1016" type="curve" smooth="yes"/>
      <point x="97" y="1016"/>
      <point x="65" y="1007"/>
      <point x="65" y="996" type="curve" smooth="yes"/>
      <point x="65" y="985"/>
      <point x="97" y="976"/>
      <point x="141" y="976" type="curve" smooth="yes"/>
      <point x="290" y="976"/>
      <point x="423" y="988"/>
      <point x="414" y="996" type="curve" smooth="yes"/>
      <point x="407" y="1004"/>
      <point x="395" y="860"/>
      <point x="395" y="754" type="curve" smooth="yes"/>
      <point x="395" y="-224" type="line" smooth="yes"/>
      <point x="395" y="-268"/>
      <point x="404" y="-300"/>
    </contour>
  </outline>
</glyph>
<glyph name="daggerdbl" format="2">
  <advance width="863"/>
  <unicode hex="2021"/>
  <note>
daggerdbl
</note>
  <outline>
    <contour>
      <point x="431" y="-300" type="curve" smooth="yes"/>
      <point x="445" y="-300"/>
      <point x="451" y="-260"/>
      <point x="451" y="-199" type="curve" smooth="yes"/>
      <point x="451" y="-80"/>
      <point x="444" y="37"/>
      <point x="436" y="62" type="curve"/>
      <point x="460" y="54"/>
      <point x="570" y="48"/>
      <point x="705" y="48" type="curve" smooth="yes"/>
      <point x="749" y="48"/>
      <point x="781" y="57"/>
      <point x="781" y="68" type="curve" smooth="yes"/>
      <point x="781" y="79"/>
      <point x="749" y="88"/>
      <point x="705" y="88" type="curve" smooth="yes"/>
      <point x="574" y="88"/>
      <point x="455" y="79"/>
      <point x="435" y="71" type="curve"/>
      <point x="442" y="93"/>
      <point x="451" y="216"/>
      <point x="451" y="310" type="curve" smooth="yes"/>
      <point x="451" y="754" type="line" smooth="yes"/>
      <point x="451" y="848"/>
      <point x="442" y="971"/>
      <point x="435" y="993" type="curve"/>
      <point x="455" y="985"/>
      <point x="574" y="976"/>
      <point x="705" y="976" type="curve" smooth="yes"/>
      <point x="749" y="976"/>
      <point x="781" y="985"/>
      <point x="781" y="996" type="curve" smooth="yes"/>
      <point x="781" y="1007"/>
      <point x="749" y="1016"/>
      <point x="705" y="1016" type="curve" smooth="yes"/>
      <point x="570" y="1016"/>
      <point x="460" y="1010"/>
      <point x="436" y="1002" type="curve"/>
      <point x="444" y="1027"/>
      <point x="451" y="1144"/>
      <point x="451" y="1263" type="curve" smooth="yes"/>
      <point x="451" y="1324"/>
      <point x="445" y="1364"/>
      <point x="431" y="1364" type="curve" smooth="yes"/>
      <point x="417" y="1364"/>
      <point x="411" y="1324"/>
      <point x="411" y="1263" type="curve" smooth="yes"/>
      <point x="411" y="1144"/>
      <point x="418" y="1027"/>
      <point x="426" y="1002" type="curve"/>
      <point x="402" y="1010"/>
      <point x="292" y="1016"/>
      <point x="157" y="1016" type="curve" smooth="yes"/>
      <point x="113" y="1016"/>
      <point x="81" y="1007"/>
      <point x="81" y="996" type="curve" smooth="yes"/>
      <point x="81" y="985"/>
      <point x="113" y="976"/>
      <point x="157" y="976" type="curve" smooth="yes"/>
      <point x="288" y="976"/>
      <point x="407" y="985"/>
      <point x="427" y="993" type="curve"/>
      <point x="420" y="971"/>
      <point x="411" y="848"/>
      <point x="411" y="754" type="curve" smooth="yes"/>
      <point x="411" y="310" type="line" smooth="yes"/>
      <point x="411" y="216"/>
      <point x="420" y="93"/>
      <point x="427" y="71" type="curve"/>
      <point x="407" y="79"/>
      <point x="288" y="88"/>
      <point x="157" y="88" type="curve" smooth="yes"/>
      <point x="113" y="88"/>
      <point x="81" y="79"/>
      <point x="81" y="68" type="curve" smooth="yes"/>
      <point x="81" y="57"/>
      <point x="113" y="48"/>
      <point x="157" y="48" type="curve" smooth="yes"/>
      <point x="292" y="48"/>
      <point x="402" y="54"/>
      <point x="426" y="62" type="curve"/>
      <point x="418" y="37"/>
      <point x="411" y="-80"/>
      <point x="411" y="-199" type="curve" smooth="yes"/>
      <point x="411" y="-260"/>
      <point x="417" y="-300"/>
    </contour>
  </outline>
</glyph>
<glyph name="perthousand" format="2">
  <advance width="2419"/>
  <unicode hex="2030"/>
  <note>
perthousand
</note>
  <outline>
    <contour>
      <point x="302" y="-41" type="line"/>
      <point x="350" y="-41" type="line"/>
      <point x="1272" y="1451" type="line"/>
      <point x="1224" y="1451" type="line"/>
    </contour>
    <contour>
      <point x="1199" y="-19" type="curve" smooth="yes"/>
      <point x="1400" y="-19"/>
      <point x="1522" y="143"/>
      <point x="1522" y="353" type="curve" smooth="yes"/>
      <point x="1522" y="565"/>
      <point x="1396" y="725"/>
      <point x="1199" y="725" type="curve" smooth="yes"/>
      <point x="1001" y="725"/>
      <point x="877" y="565"/>
      <point x="877" y="353" type="curve" smooth="yes"/>
      <point x="877" y="145"/>
      <point x="997" y="-19"/>
    </contour>
    <contour>
      <point x="1199" y="-4" type="curve" smooth="yes"/>
      <point x="1041" y="-4"/>
      <point x="951" y="137"/>
      <point x="951" y="353" type="curve" smooth="yes"/>
      <point x="951" y="569"/>
      <point x="1041" y="712"/>
      <point x="1199" y="712" type="curve" smooth="yes"/>
      <point x="1356" y="712"/>
      <point x="1447" y="570"/>
      <point x="1447" y="353" type="curve" smooth="yes"/>
      <point x="1447" y="137"/>
      <point x="1357" y="-4"/>
    </contour>
    <contour>
      <point x="419" y="727" type="curve" smooth="yes"/>
      <point x="620" y="727"/>
      <point x="742" y="890"/>
      <point x="742" y="1099" type="curve" smooth="yes"/>
      <point x="742" y="1312"/>
      <point x="616" y="1471"/>
      <point x="419" y="1471" type="curve" smooth="yes"/>
      <point x="221" y="1471"/>
      <point x="97" y="1312"/>
      <point x="97" y="1099" type="curve" smooth="yes"/>
      <point x="97" y="891"/>
      <point x="217" y="727"/>
    </contour>
    <contour>
      <point x="419" y="741" type="curve" smooth="yes"/>
      <point x="261" y="741"/>
      <point x="171" y="884"/>
      <point x="171" y="1099" type="curve" smooth="yes"/>
      <point x="171" y="1315"/>
      <point x="261" y="1457"/>
      <point x="419" y="1457" type="curve" smooth="yes"/>
      <point x="576" y="1457"/>
      <point x="668" y="1316"/>
      <point x="668" y="1099" type="curve" smooth="yes"/>
      <point x="668" y="884"/>
      <point x="577" y="741"/>
    </contour>
    <contour>
      <point x="1999" y="-19" type="curve" smooth="yes"/>
      <point x="2200" y="-19"/>
      <point x="2322" y="143"/>
      <point x="2322" y="353" type="curve" smooth="yes"/>
      <point x="2322" y="565"/>
      <point x="2196" y="725"/>
      <point x="1999" y="725" type="curve" smooth="yes"/>
      <point x="1801" y="725"/>
      <point x="1677" y="565"/>
      <point x="1677" y="353" type="curve" smooth="yes"/>
      <point x="1677" y="145"/>
      <point x="1797" y="-19"/>
    </contour>
    <contour>
      <point x="1999" y="-4" type="curve" smooth="yes"/>
      <point x="1841" y="-4"/>
      <point x="1751" y="137"/>
      <point x="1751" y="353" type="curve" smooth="yes"/>
      <point x="1751" y="569"/>
      <point x="1841" y="712"/>
      <point x="1999" y="712" type="curve" smooth="yes"/>
      <point x="2156" y="712"/>
      <point x="2247" y="570"/>
      <point x="2247" y="353" type="curve" smooth="yes"/>
      <point x="2247" y="137"/>
      <point x="2157" y="-4"/>
    </contour>
  </outline>
</glyph>
<glyph name="guilsinglleft" format="2">
  <advance width="417"/>
  <unicode hex="2039"/>
  <note>
guilsinglleft
</note>
  <outline>
    <contour>
      <point x="334" y="4" type="line"/>
      <point x="338" y="22" type="line"/>
      <point x="92" y="422" type="line"/>
      <point x="338" y="822" type="line"/>
      <point x="334" y="840" type="line"/>
      <point x="42" y="422" type="line"/>
    </contour>
  </outline>
</glyph>
<glyph name="guilsinglright" format="2">
  <advance width="417"/>
  <unicode hex="203A"/>
  <note>
guilsinglright
</note>
  <outline>
    <contour>
      <point x="83" y="4" type="line"/>
      <point x="375" y="422" type="line"/>
      <point x="83" y="840" type="line"/>
      <point x="79" y="822" type="line"/>
      <point x="325" y="422" type="line"/>
      <point x="79" y="22" type="line"/>
    </contour>
  </outline>
</glyph>
<glyph name="franc" format="2">
  <advance width="1366"/>
  <unicode hex="20A3"/>
  <note>
franc
</note>
  <outline>
    <contour>
      <point x="227" y="0" type="line"/>
      <point x="287" y="0" type="line"/>
      <point x="287" y="738" type="line"/>
      <point x="255" y="715" type="line"/>
      <point x="771" y="715" type="line"/>
      <point x="771" y="741" type="line"/>
      <point x="262" y="741" type="line"/>
      <point x="287" y="727" type="line"/>
      <point x="287" y="1420" type="line"/>
      <point x="243" y="1404" type="line"/>
      <point x="771" y="1404" type="line"/>
      <point x="771" y="1430" type="line"/>
      <point x="227" y="1430" type="line"/>
    </contour>
    <contour>
      <point x="719" y="0" type="line"/>
      <point x="771" y="0" type="line"/>
      <point x="771" y="391" type="line" smooth="yes"/>
      <point x="771" y="603"/>
      <point x="882" y="739"/>
      <point x="1040" y="739" type="curve" smooth="yes"/>
      <point x="1138" y="739"/>
      <point x="1226" y="686"/>
      <point x="1226" y="602" type="curve" smooth="yes"/>
      <point x="1226" y="565"/>
      <point x="1209" y="524"/>
      <point x="1183" y="512" type="curve"/>
      <point x="1227" y="494" type="line"/>
      <point x="1252" y="515"/>
      <point x="1272" y="554"/>
      <point x="1272" y="601" type="curve" smooth="yes"/>
      <point x="1272" y="711"/>
      <point x="1164" y="767"/>
      <point x="1054" y="767" type="curve" smooth="yes"/>
      <point x="899" y="767"/>
      <point x="789" y="655"/>
      <point x="763" y="485" type="curve"/>
      <point x="771" y="474" type="line"/>
      <point x="771" y="741" type="line"/>
      <point x="719" y="741" type="line"/>
    </contour>
  </outline>
</glyph>
<glyph name="peseta" format="2">
  <advance width="1259"/>
  <unicode hex="20A7"/>
  <anchor x="683" y="0" name="_bottom"/>
  <anchor x="683" y="465" name="bar"/>
  <anchor x="683" y="-196" name="bottom"/>
  <anchor x="683" y="1430" name="top"/>
  <outline>
    <contour>
      <point x="84" y="576" type="line"/>
      <point x="362" y="576" type="line"/>
      <point x="362" y="586" type="line"/>
      <point x="84" y="586" type="line"/>
    </contour>
    <component base="P" xOffset="136"/>
  </outline>
</glyph>
<glyph name="kip" format="2">
  <advance width="1341"/>
  <unicode hex="20AD"/>
  <outline>
    <contour>
      <point x="1155" y="0" type="line"/>
      <point x="1248" y="0" type="line"/>
      <point x="616" y="734" type="line"/>
      <point x="553" y="705" type="line"/>
    </contour>
    <contour>
      <point x="227" y="0" type="line"/>
      <point x="313" y="0" type="line"/>
      <point x="313" y="1430" type="line"/>
      <point x="227" y="1430" type="line"/>
    </contour>
    <contour>
      <point x="278" y="702" type="line"/>
      <point x="606" y="702" type="line"/>
      <point x="606" y="728" type="line"/>
      <point x="278" y="728" type="line"/>
    </contour>
    <contour>
      <point x="580" y="681" type="line"/>
      <point x="1189" y="1430" type="line"/>
      <point x="1155" y="1430" type="line"/>
      <point x="565" y="704" type="line"/>
    </contour>
  </outline>
</glyph>
<glyph name="peso" format="2">
  <advance width="1295"/>
  <unicode hex="20B1"/>
  <anchor x="637" y="0" name="_bottom"/>
  <anchor x="637" y="465" name="bar"/>
  <anchor x="637" y="-196" name="bottom"/>
  <anchor x="637" y="1430" name="top"/>
  <outline>
    <contour>
      <point x="118" y="1096" type="line"/>
      <point x="1196" y="1096" type="line"/>
      <point x="1196" y="1106" type="line"/>
      <point x="118" y="1106" type="line"/>
    </contour>
    <contour>
      <point x="118" y="896" type="line"/>
      <point x="1196" y="896" type="line"/>
      <point x="1196" y="906" type="line"/>
      <point x="118" y="906" type="line"/>
    </contour>
    <component base="P" xOffset="90"/>
  </outline>
</glyph>
<glyph name="guarani" format="2">
  <advance width="1621"/>
  <unicode hex="20B2"/>
  <anchor x="803" y="0" name="bottom"/>
  <anchor x="803" y="1430" name="top"/>
  <outline>
    <contour>
      <point x="826" y="-26" type="curve" smooth="yes"/>
      <point x="1205" y="-26"/>
      <point x="1484" y="259"/>
      <point x="1524" y="624" type="curve"/>
      <point x="1432" y="624" type="line"/>
      <point x="1393" y="265"/>
      <point x="1133" y="-12"/>
      <point x="826" y="-12" type="curve" smooth="yes"/>
      <point x="493" y="-12"/>
      <point x="215" y="314"/>
      <point x="215" y="718" type="curve" smooth="yes"/>
      <point x="215" y="1127"/>
      <point x="501" y="1446"/>
      <point x="826" y="1446" type="curve" smooth="yes"/>
      <point x="1030" y="1446"/>
      <point x="1219" y="1320"/>
      <point x="1331" y="1126" type="curve"/>
      <point x="1417" y="1126" type="line"/>
      <point x="1296" y="1327"/>
      <point x="1084" y="1460"/>
      <point x="826" y="1460" type="curve" smooth="yes"/>
      <point x="418" y="1460"/>
      <point x="123" y="1125"/>
      <point x="123" y="715" type="curve" smooth="yes"/>
      <point x="123" y="307"/>
      <point x="416" y="-26"/>
    </contour>
    <contour>
      <point x="998" y="614" type="line"/>
      <point x="1472" y="614" type="line"/>
      <point x="1472" y="624" type="line"/>
      <point x="998" y="624" type="line"/>
    </contour>
    <contour>
      <point x="782" y="-187" type="line"/>
      <point x="822" y="-187" type="line"/>
      <point x="822" y="1571" type="line"/>
      <point x="782" y="1571" type="line"/>
    </contour>
  </outline>
</glyph>
<glyph name="liraTurkish" format="2">
  <advance width="953"/>
  <unicode hex="20BA"/>
  <outline>
    <contour>
      <point x="314" y="0" type="line"/>
      <point x="522" y="0"/>
      <point x="805" y="-32"/>
      <point x="858" y="360" type="curve"/>
      <point x="828" y="346" type="line"/>
      <point x="792" y="-11"/>
      <point x="518" y="10"/>
      <point x="346" y="12" type="curve"/>
      <point x="374" y="4" type="line"/>
      <point x="374" y="1430" type="line"/>
      <point x="314" y="1430" type="line"/>
    </contour>
    <contour>
      <point x="121" y="456" type="line"/>
      <point x="585" y="737" type="line"/>
      <point x="563" y="774" type="line"/>
      <point x="99" y="493" type="line"/>
    </contour>
    <contour>
      <point x="121" y="656" type="line"/>
      <point x="585" y="937" type="line"/>
      <point x="563" y="974" type="line"/>
      <point x="99" y="693" type="line"/>
    </contour>
  </outline>
</glyph>
<glyph name="manat" format="2">
  <advance width="1210"/>
  <unicode hex="20BC"/>
  <outline>
    <contour>
      <point x="157" y="0" type="line"/>
      <point x="224" y="0" type="line"/>
      <point x="224" y="453" type="line"/>
      <point x="224" y="741"/>
      <point x="383" y="925"/>
      <point x="604" y="925" type="curve" smooth="yes"/>
      <point x="834" y="925"/>
      <point x="986" y="723"/>
      <point x="986" y="453" type="curve"/>
      <point x="986" y="0" type="line"/>
      <point x="1053" y="0" type="line"/>
      <point x="1053" y="454" type="line"/>
      <point x="1053" y="735"/>
      <point x="873" y="938"/>
      <point x="604" y="938" type="curve" smooth="yes"/>
      <point x="336" y="938"/>
      <point x="157" y="736"/>
      <point x="157" y="454" type="curve"/>
    </contour>
    <contour>
      <point x="585" y="0" type="line"/>
      <point x="625" y="0" type="line"/>
      <point x="625" y="1258" type="line"/>
      <point x="585" y="1258" type="line"/>
    </contour>
  </outline>
</glyph>
<glyph name="ruble" format="2">
  <advance width="1274"/>
  <unicode hex="20BD"/>
  <anchor x="698" y="0" name="_bottom"/>
  <anchor x="698" y="465" name="bar"/>
  <anchor x="698" y="-196" name="bottom"/>
  <anchor x="698" y="1430" name="top"/>
  <outline>
    <contour>
      <point x="99" y="576" type="line"/>
      <point x="377" y="576" type="line"/>
      <point x="377" y="586" type="line"/>
      <point x="99" y="586" type="line"/>
    </contour>
    <contour>
      <point x="99" y="376" type="line"/>
      <point x="677" y="376" type="line"/>
      <point x="677" y="386" type="line"/>
      <point x="99" y="386" type="line"/>
    </contour>
    <component base="P" xOffset="151"/>
  </outline>
</glyph>
<glyph name="emptyset" format="2">
  <advance width="1200"/>
  <unicode hex="2205"/>
  <outline>
    <contour>
      <point x="524" y="-27" type="curve" smooth="yes"/>
      <point x="789" y="-27"/>
      <point x="1005" y="190"/>
      <point x="1005" y="456" type="curve" smooth="yes"/>
      <point x="1005" y="721"/>
      <point x="789" y="937"/>
      <point x="524" y="937" type="curve" smooth="yes"/>
      <point x="258" y="937"/>
      <point x="42" y="721"/>
      <point x="42" y="456" type="curve" smooth="yes"/>
      <point x="42" y="190"/>
      <point x="258" y="-27"/>
    </contour>
    <contour>
      <point x="524" y="18" type="curve" smooth="yes"/>
      <point x="282" y="18"/>
      <point x="86" y="214"/>
      <point x="86" y="456" type="curve" smooth="yes"/>
      <point x="86" y="697"/>
      <point x="282" y="893"/>
      <point x="524" y="893" type="curve" smooth="yes"/>
      <point x="765" y="893"/>
      <point x="961" y="697"/>
      <point x="961" y="456" type="curve" smooth="yes"/>
      <point x="961" y="214"/>
      <point x="765" y="18"/>
    </contour>
    <component base="slashlongcomb" xOffset="152" yOffset="-14"/>
  </outline>
</glyph>
<glyph name="product" format="2">
  <advance width="1484"/>
  <unicode hex="220F"/>
  <note>
product
</note>
  <outline>
    <contour>
      <point x="214" y="-385" type="line"/>
      <point x="276" y="-385" type="line"/>
      <point x="276" y="1254" type="line"/>
      <point x="1210" y="1254" type="line"/>
      <point x="1210" y="-385" type="line"/>
      <point x="1270" y="-385" type="line"/>
      <point x="1270" y="1280" type="line"/>
      <point x="214" y="1280" type="line"/>
    </contour>
  </outline>
</glyph>
<glyph name="radical" format="2">
  <advance width="1294"/>
  <unicode hex="221A"/>
  <note>
radical
</note>
  <guideline x="821" y="862" angle="249.8125"/>
  <outline>
    <contour>
      <point x="500" y="-46" type="line"/>
      <point x="520" y="-46" type="line"/>
      <point x="1093" y="1507" type="line"/>
      <point x="1223" y="1507" type="line"/>
      <point x="1223" y="1576" type="line"/>
      <point x="1069" y="1576" type="line"/>
      <point x="523" y="91" type="line"/>
      <point x="223" y="925" type="line"/>
      <point x="68" y="869" type="line"/>
      <point x="89" y="812" type="line"/>
      <point x="180" y="845" type="line"/>
    </contour>
  </outline>
</glyph>
<glyph name="infinity" format="2">
  <advance width="1390"/>
  <unicode hex="221E"/>
  <note>
infinity
</note>
  <outline>
    <contour>
      <point x="396" y="308" type="curve" smooth="yes"/>
      <point x="515" y="308"/>
      <point x="596" y="377"/>
      <point x="699" y="565" type="curve"/>
      <point x="798" y="387"/>
      <point x="888" y="310"/>
      <point x="994" y="310" type="curve" smooth="yes"/>
      <point x="1137" y="310"/>
      <point x="1261" y="446"/>
      <point x="1261" y="602" type="curve" smooth="yes"/>
      <point x="1261" y="772"/>
      <point x="1152" y="890"/>
      <point x="994" y="890" type="curve" smooth="yes"/>
      <point x="874" y="890"/>
      <point x="786" y="815"/>
      <point x="692" y="632" type="curve"/>
      <point x="603" y="804"/>
      <point x="506" y="888"/>
      <point x="398" y="888" type="curve" smooth="yes"/>
      <point x="254" y="888"/>
      <point x="129" y="752"/>
      <point x="129" y="596" type="curve" smooth="yes"/>
      <point x="129" y="426"/>
      <point x="239" y="308"/>
    </contour>
    <contour>
      <point x="376" y="357" type="curve" smooth="yes"/>
      <point x="272" y="357"/>
      <point x="168" y="463"/>
      <point x="168" y="569" type="curve" smooth="yes"/>
      <point x="168" y="721"/>
      <point x="272" y="844"/>
      <point x="400" y="844" type="curve" smooth="yes"/>
      <point x="493" y="844"/>
      <point x="592" y="760"/>
      <point x="675" y="611" type="curve"/>
      <point x="588" y="424"/>
      <point x="509" y="357"/>
    </contour>
    <contour>
      <point x="994" y="354" type="curve" smooth="yes"/>
      <point x="900" y="354"/>
      <point x="802" y="437"/>
      <point x="718" y="588" type="curve"/>
      <point x="803" y="771"/>
      <point x="886" y="841"/>
      <point x="1016" y="841" type="curve" smooth="yes"/>
      <point x="1120" y="841"/>
      <point x="1224" y="734"/>
      <point x="1224" y="627" type="curve" smooth="yes"/>
      <point x="1224" y="478"/>
      <point x="1119" y="354"/>
    </contour>
  </outline>
</glyph>
<glyph name="approxequal" format="2">
  <advance width="936"/>
  <unicode hex="2248"/>
  <note>
approxequal
</note>
  <outline>
    <contour>
      <point x="693" y="720" type="curve" smooth="yes"/>
      <point x="798" y="720"/>
      <point x="865" y="765"/>
      <point x="930" y="863" type="curve"/>
      <point x="907" y="882" type="line"/>
      <point x="865" y="817"/>
      <point x="772" y="761"/>
      <point x="687" y="761" type="curve" smooth="yes"/>
      <point x="628" y="761"/>
      <point x="592" y="789"/>
      <point x="553" y="819" type="curve" smooth="yes"/>
      <point x="508" y="853"/>
      <point x="459" y="890"/>
      <point x="364" y="890" type="curve" smooth="yes"/>
      <point x="258" y="890"/>
      <point x="188" y="844"/>
      <point x="134" y="746" type="curve"/>
      <point x="159" y="728" type="line"/>
      <point x="201" y="793"/>
      <point x="283" y="847"/>
      <point x="367" y="847" type="curve" smooth="yes"/>
      <point x="435" y="847"/>
      <point x="473" y="811"/>
      <point x="520" y="778" type="curve" smooth="yes"/>
      <point x="561" y="748"/>
      <point x="610" y="720"/>
    </contour>
    <contour>
      <point x="693" y="496" type="curve" smooth="yes"/>
      <point x="798" y="496"/>
      <point x="865" y="541"/>
      <point x="930" y="639" type="curve"/>
      <point x="907" y="658" type="line"/>
      <point x="865" y="593"/>
      <point x="772" y="537"/>
      <point x="687" y="537" type="curve" smooth="yes"/>
      <point x="624" y="537"/>
      <point x="588" y="568"/>
      <point x="546" y="600" type="curve" smooth="yes"/>
      <point x="503" y="633"/>
      <point x="454" y="666"/>
      <point x="364" y="666" type="curve" smooth="yes"/>
      <point x="258" y="666"/>
      <point x="188" y="620"/>
      <point x="134" y="522" type="curve"/>
      <point x="159" y="504" type="line"/>
      <point x="201" y="569"/>
      <point x="283" y="623"/>
      <point x="367" y="623" type="curve" smooth="yes"/>
      <point x="434" y="623"/>
      <point x="472" y="588"/>
      <point x="519" y="555" type="curve" smooth="yes"/>
      <point x="561" y="525"/>
      <point x="610" y="496"/>
    </contour>
  </outline>
</glyph>
<glyph name="W.rvrn" format="2">
  <advance width="1892"/>
  <note>
W
</note>
  <anchor x="946" y="0" name="bottom"/>
  <anchor x="946" y="1430" name="top"/>
  <outline>
    <contour>
      <point x="1268" y="-41" type="line"/>
      <point x="1850" y="1429" type="line"/>
      <point x="1839" y="1429" type="line"/>
      <point x="1273" y="0" type="line"/>
      <point x="1302" y="58" type="line"/>
      <point x="750" y="1430" type="line"/>
      <point x="672" y="1429" type="line"/>
    </contour>
    <contour>
      <point x="638" y="-41" type="line"/>
      <point x="964" y="784" type="line"/>
      <point x="959" y="797" type="line"/>
      <point x="643" y="0" type="line"/>
      <point x="672" y="58" type="line"/>
      <point x="120" y="1430" type="line"/>
      <point x="42" y="1429" type="line"/>
    </contour>
  </outline>
</glyph>
<glyph name="_cyrillicdescender02" format="2">
  <advance width="1006"/>
  <anchor x="103" y="0" name="_bottomright"/>
  <outline>
    <contour>
      <point x="53" y="0" type="line"/>
      <point x="191" y="0" type="line"/>
      <point x="191" y="10" type="line"/>
      <point x="53" y="10" type="line"/>
    </contour>
    <component base="_cyrillicdescender01" xOffset="97"/>
  </outline>
</glyph>
<glyph name="brevecomb-cy" format="2">
  <anchor x="264" y="910" name="_top"/>
  <outline>
    <contour>
      <point x="264" y="1096" type="curve" smooth="yes"/>
      <point x="384" y="1096"/>
      <point x="460" y="1153"/>
      <point x="493" y="1266" type="curve"/>
      <point x="434" y="1266" type="line"/>
      <point x="414" y="1154"/>
      <point x="361" y="1108"/>
      <point x="264" y="1108" type="curve" smooth="yes"/>
      <point x="167" y="1108"/>
      <point x="114" y="1154"/>
      <point x="94" y="1266" type="curve"/>
      <point x="35" y="1266" type="line"/>
      <point x="68" y="1153"/>
      <point x="144" y="1096"/>
    </contour>
  </outline>
</glyph>
<glyph name="currency_horz_stroke_long.case" format="2">
  <advance width="1780"/>
  <anchor x="890" y="0" name="_bottom"/>
  <anchor x="888" y="-318" name="bottom"/>
  <outline>
    <contour>
      <point x="146" y="716" type="line"/>
      <point x="1634" y="716" type="line"/>
      <point x="1634" y="742" type="line"/>
      <point x="146" y="742" type="line"/>
    </contour>
  </outline>
</glyph>
<glyph name="currency_vert_stroke.case" format="2">
  <advance width="468"/>
  <anchor x="235" y="0" name="_bottom"/>
  <outline>
    <contour>
      <point x="214" y="-187" type="line"/>
      <point x="254" y="-187" type="line"/>
      <point x="254" y="1571" type="line"/>
      <point x="214" y="1571" type="line"/>
    </contour>
  </outline>
</glyph>
<glyph name="currency_vert_stroke" format="2">
  <advance width="460"/>
  <anchor x="217" y="1154" name="_top"/>
  <outline>
    <contour>
      <point x="210" y="83" type="line"/>
      <point x="250" y="83" type="line"/>
      <point x="250" y="1341" type="line"/>
      <point x="210" y="1341" type="line"/>
    </contour>
  </outline>
</glyph>
<glyph name="f_f" format="2">
  <advance width="680"/>
  <anchor x="342" y="0" name="caret_1"/>
  <outline>
    <contour>
      <point x="437" y="0" type="line"/>
      <point x="514" y="0" type="line"/>
      <point x="514" y="1155" type="line" smooth="yes"/>
      <point x="514" y="1439"/>
      <point x="536" y="1518"/>
      <point x="620" y="1518" type="curve"/>
      <point x="675" y="1510"/>
      <point x="713" y="1465"/>
      <point x="713" y="1388" type="curve" smooth="yes"/>
      <point x="713" y="1364"/>
      <point x="708" y="1333"/>
      <point x="701" y="1314" type="curve"/>
      <point x="751" y="1314" type="line"/>
      <point x="758" y="1357"/>
      <point x="761" y="1390"/>
      <point x="761" y="1411" type="curve" smooth="yes"/>
      <point x="761" y="1491"/>
      <point x="705" y="1531"/>
      <point x="613" y="1531" type="curve" smooth="yes"/>
      <point x="460" y="1531"/>
      <point x="437" y="1363"/>
      <point x="437" y="1155" type="curve" smooth="yes"/>
    </contour>
    <contour>
      <point x="164" y="0" type="line"/>
      <point x="241" y="0" type="line"/>
      <point x="241" y="1135" type="line" smooth="yes"/>
      <point x="241" y="1419"/>
      <point x="261" y="1498"/>
      <point x="345" y="1498" type="curve"/>
      <point x="400" y="1490"/>
      <point x="438" y="1445"/>
      <point x="438" y="1368" type="curve"/>
      <point x="437" y="1157" type="line"/>
      <point x="478" y="1294" type="line"/>
      <point x="485" y="1337"/>
      <point x="488" y="1370"/>
      <point x="488" y="1391" type="curve" smooth="yes"/>
      <point x="488" y="1471"/>
      <point x="432" y="1511"/>
      <point x="340" y="1511" type="curve" smooth="yes"/>
      <point x="187" y="1511"/>
      <point x="164" y="1343"/>
      <point x="164" y="1135" type="curve" smooth="yes"/>
    </contour>
    <contour>
      <point x="27" y="900" type="line"/>
      <point x="383" y="900" type="line"/>
      <point x="383" y="910" type="line"/>
      <point x="27" y="910" type="line"/>
    </contour>
    <contour>
      <point x="300" y="900" type="line"/>
      <point x="656" y="900" type="line"/>
      <point x="656" y="910" type="line"/>
      <point x="300" y="910" type="line"/>
    </contour>
  </outline>
</glyph>
<glyph name="f_t" format="2">
  <advance width="705"/>
  <anchor x="176" y="0" name="bottom_1"/>
  <anchor x="528" y="0" name="bottom_2"/>
  <anchor x="352" y="0" name="caret_1"/>
  <anchor x="176" y="1514" name="top_1"/>
  <anchor x="528" y="1514" name="top_2"/>
  <outline>
    <contour>
      <point x="551" y="-18" type="curve" smooth="yes"/>
      <point x="600" y="-18"/>
      <point x="665" y="-1"/>
      <point x="681" y="6" type="curve"/>
      <point x="681" y="33" type="line"/>
      <point x="653" y="20"/>
      <point x="598" y="-5"/>
      <point x="559" y="-5" type="curve" smooth="yes"/>
      <point x="505" y="-5"/>
      <point x="508" y="44"/>
      <point x="508" y="214" type="curve" smooth="yes"/>
      <point x="508" y="900" type="line"/>
      <point x="648" y="900" type="line"/>
      <point x="648" y="910" type="line"/>
      <point x="508" y="910" type="line"/>
      <point x="508" y="1281" type="line" smooth="yes"/>
      <point x="508" y="1454"/>
      <point x="449" y="1531"/>
      <point x="350" y="1531" type="curve" smooth="yes"/>
      <point x="204" y="1531"/>
      <point x="167" y="1363"/>
      <point x="167" y="1155" type="curve" smooth="yes"/>
      <point x="167" y="910" type="line"/>
      <point x="27" y="910" type="line"/>
      <point x="27" y="900" type="line"/>
      <point x="167" y="900" type="line"/>
      <point x="167" y="0" type="line"/>
      <point x="239" y="0" type="line"/>
      <point x="239" y="900" type="line"/>
      <point x="436" y="900" type="line"/>
      <point x="436" y="240" type="line" smooth="yes"/>
      <point x="436" y="73"/>
      <point x="439" y="-18"/>
    </contour>
    <contour>
      <point x="333" y="910" type="curve" smooth="yes"/>
      <point x="239" y="910" type="line"/>
      <point x="239" y="1155" type="line" smooth="yes"/>
      <point x="239" y="1439"/>
      <point x="273" y="1518"/>
      <point x="357" y="1518" type="curve"/>
      <point x="411" y="1510"/>
      <point x="468" y="1454"/>
      <point x="469" y="1303" type="curve"/>
      <point x="468" y="1197" type="line" smooth="yes"/>
      <point x="467" y="944"/>
      <point x="449" y="911"/>
    </contour>
  </outline>
</glyph>
<glyph name="five.dnom" format="2">
  <advance width="642"/>
  <note>
five
</note>
  <outline>
    <contour>
      <point x="281" y="-19" type="curve" smooth="yes"/>
      <point x="465" y="-19"/>
      <point x="585" y="106"/>
      <point x="585" y="287" type="curve" smooth="yes"/>
      <point x="585" y="497"/>
      <point x="425" y="581"/>
      <point x="301" y="581" type="curve" smooth="yes"/>
      <point x="236" y="581"/>
      <point x="164" y="558"/>
      <point x="108" y="525" type="curve"/>
      <point x="114" y="525" type="line"/>
      <point x="196" y="907" type="line"/>
      <point x="179" y="868" type="line"/>
      <point x="536" y="868" type="line"/>
      <point x="536" y="944" type="line"/>
      <point x="184" y="944" type="line"/>
      <point x="93" y="519" type="line"/>
      <point x="101" y="517" type="line"/>
      <point x="161" y="550"/>
      <point x="230" y="571"/>
      <point x="284" y="571" type="curve" smooth="yes"/>
      <point x="409" y="571"/>
      <point x="506" y="475"/>
      <point x="506" y="286" type="curve" smooth="yes"/>
      <point x="506" y="146"/>
      <point x="462" y="-9"/>
      <point x="283" y="-9" type="curve" smooth="yes"/>
      <point x="184" y="-9"/>
      <point x="104" y="39"/>
      <point x="56" y="119" type="curve"/>
      <point x="50" y="117" type="line"/>
      <point x="109" y="15"/>
      <point x="188" y="-19"/>
    </contour>
  </outline>
</glyph>
<glyph name="four.osf" format="2">
  <advance width="925"/>
  <outline>
    <contour>
      <point x="691" y="-393" type="line"/>
      <point x="751" y="-393" type="line"/>
      <point x="751" y="27" type="line"/>
      <point x="724" y="0" type="line"/>
      <point x="879" y="0" type="line"/>
      <point x="879" y="26" type="line"/>
      <point x="724" y="26" type="line"/>
      <point x="751" y="-1" type="line"/>
      <point x="751" y="516" type="line"/>
      <point x="691" y="516" type="line"/>
      <point x="691" y="-1" type="line"/>
      <point x="718" y="26" type="line"/>
      <point x="70" y="26" type="line"/>
      <point x="69" y="14" type="line"/>
      <point x="241" y="262"/>
      <point x="490" y="611"/>
      <point x="638" y="968" type="curve"/>
      <point x="569" y="968" type="line"/>
      <point x="436" y="596"/>
      <point x="217" y="258"/>
      <point x="32" y="0" type="curve"/>
      <point x="718" y="0" type="line"/>
      <point x="691" y="27" type="line"/>
    </contour>
  </outline>
</glyph>
<glyph name="nine.dnom" format="2">
  <advance width="705"/>
  <note>
nine
</note>
  <outline>
    <contour>
      <point x="191" y="-23" type="line"/>
      <point x="298" y="6"/>
      <point x="386" y="53"/>
      <point x="459" y="126" type="curve" smooth="yes"/>
      <point x="498" y="165"/>
      <point x="522" y="196"/>
      <point x="548" y="239" type="curve" smooth="yes"/>
      <point x="607" y="333"/>
      <point x="645" y="445"/>
      <point x="645" y="588" type="curve" smooth="yes"/>
      <point x="645" y="813"/>
      <point x="550" y="949"/>
      <point x="361" y="952" type="curve" smooth="yes"/>
      <point x="177" y="955"/>
      <point x="57" y="825"/>
      <point x="57" y="651" type="curve" smooth="yes"/>
      <point x="57" y="482"/>
      <point x="179" y="353"/>
      <point x="343" y="353" type="curve" smooth="yes"/>
      <point x="484" y="353"/>
      <point x="568" y="451"/>
      <point x="594" y="573" type="curve"/>
      <point x="582" y="601" type="line"/>
      <point x="578" y="464"/>
      <point x="565" y="400"/>
      <point x="534" y="326" type="curve" smooth="yes"/>
      <point x="466" y="161"/>
      <point x="368" y="48"/>
      <point x="191" y="-12" type="curve"/>
    </contour>
    <contour>
      <point x="337" y="364" type="curve" smooth="yes"/>
      <point x="177" y="364"/>
      <point x="128" y="530"/>
      <point x="128" y="650" type="curve" smooth="yes"/>
      <point x="128" y="795"/>
      <point x="187" y="944"/>
      <point x="350" y="941" type="curve" smooth="yes"/>
      <point x="516" y="938"/>
      <point x="578" y="788"/>
      <point x="576" y="628" type="curve" smooth="yes"/>
      <point x="574" y="497"/>
      <point x="482" y="364"/>
    </contour>
  </outline>
</glyph>
<glyph name="nine.osf" format="2">
  <advance width="1018"/>
  <outline>
    <contour>
      <point x="283" y="-398" type="line"/>
      <point x="415" y="-360"/>
      <point x="562" y="-297"/>
      <point x="665" y="-193" type="curve" smooth="yes"/>
      <point x="703" y="-155"/>
      <point x="744" y="-106"/>
      <point x="791" y="-24" type="curve" smooth="yes"/>
      <point x="856" y="89"/>
      <point x="917" y="230"/>
      <point x="917" y="451" type="curve" smooth="yes"/>
      <point x="917" y="776"/>
      <point x="788" y="997"/>
      <point x="511" y="997" type="curve" smooth="yes"/>
      <point x="246" y="997"/>
      <point x="71" y="796"/>
      <point x="71" y="554" type="curve" smooth="yes"/>
      <point x="71" y="310"/>
      <point x="247" y="130"/>
      <point x="483" y="130" type="curve" smooth="yes"/>
      <point x="697" y="130"/>
      <point x="822" y="279"/>
      <point x="865" y="418" type="curve"/>
      <point x="858" y="464" type="line"/>
      <point x="880" y="182"/>
      <point x="715" y="-50"/>
      <point x="672" y="-110" type="curve" smooth="yes"/>
      <point x="558" y="-266"/>
      <point x="431" y="-316"/>
      <point x="283" y="-370" type="curve"/>
    </contour>
    <contour>
      <point x="480" y="160" type="curve" smooth="yes"/>
      <point x="220" y="160"/>
      <point x="134" y="407"/>
      <point x="134" y="569" type="curve" smooth="yes"/>
      <point x="134" y="754"/>
      <point x="248" y="967"/>
      <point x="494" y="967" type="curve" smooth="yes"/>
      <point x="741" y="967"/>
      <point x="854" y="754"/>
      <point x="854" y="569" type="curve" smooth="yes"/>
      <point x="854" y="366"/>
      <point x="718" y="160"/>
    </contour>
  </outline>
</glyph>
<glyph name="o.t" format="2">
  <advance width="1020"/>
  <note>
o
</note>
  <anchor x="510" y="0" name="bottom"/>
  <anchor x="510" y="457" name="center"/>
  <anchor x="755" y="10" name="ogonek"/>
  <anchor x="500" y="914" name="top"/>
  <anchor x="948" y="914" name="topright"/>
  <outline>
    <contour>
      <point x="509" y="-24" type="curve" smooth="yes"/>
      <point x="777" y="-24"/>
      <point x="968" y="172"/>
      <point x="968" y="454" type="curve" smooth="yes"/>
      <point x="968" y="735"/>
      <point x="778" y="938"/>
      <point x="509" y="938" type="curve" smooth="yes"/>
      <point x="241" y="938"/>
      <point x="52" y="736"/>
      <point x="52" y="454" type="curve" smooth="yes"/>
      <point x="52" y="173"/>
      <point x="240" y="-24"/>
    </contour>
    <contour>
      <point x="509" y="-11" type="curve" smooth="yes"/>
      <point x="278" y="-11"/>
      <point x="129" y="193"/>
      <point x="129" y="463" type="curve" smooth="yes"/>
      <point x="129" y="741"/>
      <point x="288" y="925"/>
      <point x="509" y="925" type="curve" smooth="yes"/>
      <point x="739" y="925"/>
      <point x="891" y="723"/>
      <point x="891" y="453" type="curve" smooth="yes"/>
      <point x="891" y="175"/>
      <point x="729" y="-11"/>
    </contour>
  </outline>
</glyph>
<glyph name="one.dnom" format="2">
  <advance width="349"/>
  <note>
one
</note>
  <outline>
    <contour>
      <point x="194" y="0" type="line"/>
      <point x="264" y="0" type="line"/>
      <point x="264" y="960" type="line"/>
      <point x="250" y="960" type="line"/>
      <point x="51" y="667" type="line"/>
      <point x="64" y="658" type="line"/>
      <point x="219" y="891" type="line"/>
      <point x="194" y="873" type="line"/>
    </contour>
  </outline>
</glyph>
<glyph name="one.tf" format="2">
  <advance width="1100"/>
  <outline>
    <contour>
      <point x="514" y="0" type="line"/>
      <point x="584" y="0" type="line"/>
      <point x="584" y="1460" type="line"/>
      <point x="578" y="1460" type="line"/>
      <point x="303" y="1030" type="line"/>
      <point x="311" y="1025" type="line"/>
      <point x="545" y="1390" type="line"/>
      <point x="514" y="1351" type="line"/>
    </contour>
    <contour>
      <point x="247" y="0" type="line"/>
      <point x="852" y="0" type="line"/>
      <point x="852" y="32" type="line"/>
      <point x="247" y="32" type="line"/>
    </contour>
  </outline>
</glyph>
<glyph name="six.dnom" format="2">
  <advance width="705"/>
  <note>
six
</note>
  <outline>
    <contour>
      <point x="344" y="-24" type="curve" smooth="yes"/>
      <point x="533" y="-27"/>
      <point x="648" y="107"/>
      <point x="648" y="277" type="curve" smooth="yes"/>
      <point x="648" y="446"/>
      <point x="526" y="575"/>
      <point x="363" y="575" type="curve" smooth="yes"/>
      <point x="222" y="575"/>
      <point x="137" y="477"/>
      <point x="111" y="355" type="curve"/>
      <point x="123" y="327" type="line"/>
      <point x="127" y="460"/>
      <point x="140" y="527"/>
      <point x="171" y="601" type="curve" smooth="yes"/>
      <point x="237" y="761"/>
      <point x="332" y="878"/>
      <point x="515" y="940" type="curve"/>
      <point x="515" y="951" type="line"/>
      <point x="358" y="909"/>
      <point x="243" y="827"/>
      <point x="158" y="690" type="curve" smooth="yes"/>
      <point x="97" y="592"/>
      <point x="60" y="483"/>
      <point x="60" y="340" type="curve" smooth="yes"/>
      <point x="60" y="135"/>
      <point x="141" y="-21"/>
    </contour>
    <contour>
      <point x="356" y="-13" type="curve" smooth="yes"/>
      <point x="208" y="-11"/>
      <point x="128" y="109"/>
      <point x="130" y="305" type="curve" smooth="yes"/>
      <point x="131" y="428"/>
      <point x="223" y="564"/>
      <point x="368" y="564" type="curve" smooth="yes"/>
      <point x="529" y="564"/>
      <point x="577" y="397"/>
      <point x="577" y="278" type="curve" smooth="yes"/>
      <point x="577" y="139"/>
      <point x="523" y="-15"/>
    </contour>
  </outline>
</glyph>
<glyph name="slash.fig" format="2">
  <advance width="1234"/>
  <anchor x="617" y="716" name="_center"/>
  <outline>
    <contour>
      <point x="134" y="-134" type="line"/>
      <point x="164" y="-134" type="line"/>
      <point x="1101" y="1566" type="line"/>
      <point x="1071" y="1566" type="line"/>
    </contour>
  </outline>
</glyph>
<glyph name="slashlongcomb.case" format="2">
  <anchor x="470.5" y="717" name="_center"/>
  <outline>
    <contour>
      <point x="-11" y="-70" type="line"/>
      <point x="11" y="-70" type="line"/>
      <point x="952" y="1504" type="line"/>
      <point x="930" y="1504" type="line"/>
    </contour>
  </outline>
</glyph>
<glyph name="three.dnom" format="2">
  <advance width="691"/>
  <note>
three
</note>
  <outline>
    <contour>
      <point x="332" y="-23" type="curve" smooth="yes"/>
      <point x="510" y="-23"/>
      <point x="632" y="98"/>
      <point x="632" y="248" type="curve" smooth="yes"/>
      <point x="632" y="400"/>
      <point x="518" y="484"/>
      <point x="393" y="502" type="curve"/>
      <point x="390" y="497" type="line"/>
      <point x="495" y="508"/>
      <point x="612" y="581"/>
      <point x="612" y="727" type="curve" smooth="yes"/>
      <point x="612" y="856"/>
      <point x="513" y="963"/>
      <point x="354" y="963" type="curve" smooth="yes"/>
      <point x="207" y="963"/>
      <point x="81" y="872"/>
      <point x="73" y="710" type="curve"/>
      <point x="138" y="715" type="line"/>
      <point x="139" y="862"/>
      <point x="224" y="952"/>
      <point x="352" y="952" type="curve" smooth="yes"/>
      <point x="494" y="952"/>
      <point x="541" y="841"/>
      <point x="541" y="730" type="curve" smooth="yes"/>
      <point x="541" y="582"/>
      <point x="470" y="505"/>
      <point x="333" y="505" type="curve" smooth="yes"/>
      <point x="218" y="505" type="line"/>
      <point x="218" y="496" type="line"/>
      <point x="336" y="496" type="line" smooth="yes"/>
      <point x="471" y="496"/>
      <point x="549" y="405"/>
      <point x="549" y="247" type="curve" smooth="yes"/>
      <point x="549" y="101"/>
      <point x="468" y="-13"/>
      <point x="336" y="-13" type="curve" smooth="yes"/>
      <point x="205" y="-13"/>
      <point x="126" y="97"/>
      <point x="126" y="226" type="curve" smooth="yes"/>
      <point x="126" y="236" type="line"/>
      <point x="56" y="240" type="line"/>
      <point x="56" y="222" type="line" smooth="yes"/>
      <point x="56" y="68"/>
      <point x="176" y="-23"/>
    </contour>
  </outline>
</glyph>
<glyph name="three.osf" format="2">
  <advance width="863"/>
  <outline>
    <contour>
      <point x="325" y="-320" type="curve" smooth="yes"/>
      <point x="614" y="-320"/>
      <point x="770" y="-54"/>
      <point x="770" y="151" type="curve" smooth="yes"/>
      <point x="770" y="366"/>
      <point x="565" y="465"/>
      <point x="483" y="453" type="curve"/>
      <point x="420" y="427" type="line"/>
      <point x="562" y="450"/>
      <point x="704" y="513"/>
      <point x="704" y="704" type="curve" smooth="yes"/>
      <point x="704" y="876"/>
      <point x="575" y="997"/>
      <point x="393" y="997" type="curve" smooth="yes"/>
      <point x="203" y="997"/>
      <point x="62" y="870"/>
      <point x="53" y="691" type="curve"/>
      <point x="107" y="690" type="line"/>
      <point x="112" y="856"/>
      <point x="228" y="974"/>
      <point x="389" y="974" type="curve" smooth="yes"/>
      <point x="547" y="974"/>
      <point x="658" y="863"/>
      <point x="658" y="706" type="curve" smooth="yes"/>
      <point x="658" y="521"/>
      <point x="546" y="480"/>
      <point x="349" y="437" type="curve" smooth="yes"/>
      <point x="211" y="407" type="line"/>
      <point x="217" y="384" type="line"/>
      <point x="374" y="416"/>
      <point x="401" y="424"/>
      <point x="440" y="424" type="curve" smooth="yes"/>
      <point x="599" y="424"/>
      <point x="709" y="325"/>
      <point x="706" y="144" type="curve" smooth="yes"/>
      <point x="702" y="-109"/>
      <point x="534" y="-292"/>
      <point x="316" y="-292" type="curve" smooth="yes"/>
      <point x="214" y="-292"/>
      <point x="122" y="-252"/>
      <point x="60" y="-202" type="curve"/>
      <point x="43" y="-221" type="line"/>
      <point x="110" y="-281"/>
      <point x="210" y="-320"/>
    </contour>
  </outline>
</glyph>
<glyph name="two.dnom" format="2">
  <advance width="698"/>
  <note>
two
</note>
  <outline>
    <contour>
      <point x="51" y="0" type="line"/>
      <point x="639" y="0" type="line"/>
      <point x="639" y="56" type="line"/>
      <point x="112" y="57" type="line"/>
      <point x="89" y="30" type="line"/>
      <point x="180" y="111"/>
      <point x="376" y="301"/>
      <point x="473" y="410" type="curve" smooth="yes"/>
      <point x="578" y="528"/>
      <point x="634" y="610"/>
      <point x="634" y="707" type="curve" smooth="yes"/>
      <point x="634" y="853"/>
      <point x="531" y="965"/>
      <point x="363" y="965" type="curve" smooth="yes"/>
      <point x="206" y="965"/>
      <point x="81" y="845"/>
      <point x="81" y="681" type="curve" smooth="yes"/>
      <point x="81" y="672"/>
      <point x="81" y="664"/>
      <point x="82" y="656" type="curve"/>
      <point x="150" y="659" type="line"/>
      <point x="150" y="669" type="line" smooth="yes"/>
      <point x="150" y="832"/>
      <point x="229" y="954"/>
      <point x="360" y="954" type="curve" smooth="yes"/>
      <point x="471" y="954"/>
      <point x="557" y="887"/>
      <point x="557" y="711" type="curve" smooth="yes"/>
      <point x="557" y="546"/>
      <point x="432" y="387"/>
      <point x="277" y="230" type="curve" smooth="yes"/>
    </contour>
  </outline>
</glyph>
<glyph name="zero.osf" format="2">
  <advance width="1130"/>
  <outline>
    <contour>
      <point x="565" y="-24" type="curve" smooth="yes"/>
      <point x="841" y="-24"/>
      <point x="1055" y="200"/>
      <point x="1055" y="476" type="curve" smooth="yes"/>
      <point x="1055" y="752"/>
      <point x="841" y="976"/>
      <point x="565" y="976" type="curve" smooth="yes"/>
      <point x="289" y="976"/>
      <point x="75" y="752"/>
      <point x="75" y="476" type="curve" smooth="yes"/>
      <point x="75" y="200"/>
      <point x="289" y="-24"/>
    </contour>
    <contour>
      <point x="565" y="-4" type="curve" smooth="yes"/>
      <point x="327" y="-4"/>
      <point x="141" y="244"/>
      <point x="141" y="476" type="curve" smooth="yes"/>
      <point x="141" y="708"/>
      <point x="327" y="956"/>
      <point x="565" y="956" type="curve" smooth="yes"/>
      <point x="803" y="956"/>
      <point x="989" y="708"/>
      <point x="989" y="476" type="curve" smooth="yes"/>
      <point x="989" y="244"/>
      <point x="803" y="-4"/>
    </contour>
  </outline>
</glyph>
